<svg id="svg" version="1.1" xmlns="http://www.w3.org/2000/svg" xmlns:xlink="http://www.w3.org/1999/xlink" width="400" height="400" viewBox="0, 0, 400,400"><g id="svgg"><path id="path0" d="M292.000 123.813 C 292.000 124.149,291.730 124.529,291.400 124.655 C 290.671 124.935,290.582 127.197,291.300 127.206 C 292.353 127.219,290.573 127.988,289.476 127.994 C 288.685 127.998,288.442 128.148,288.653 128.500 C 288.857 128.840,288.737 128.824,288.277 128.451 C 287.694 127.978,287.600 127.992,287.600 128.551 C 287.600 128.933,287.271 129.200,286.800 129.200 C 285.925 129.200,285.661 130.701,286.405 131.445 C 286.679 131.719,286.463 132.167,285.741 132.825 C 285.152 133.361,284.800 133.576,284.957 133.303 C 285.385 132.561,283.159 132.841,282.372 133.628 C 281.633 134.367,281.522 135.667,282.161 136.094 C 282.459 136.293,282.432 136.390,282.076 136.394 C 281.788 136.397,281.664 136.580,281.800 136.800 C 281.936 137.020,281.689 137.200,281.252 137.200 C 280.815 137.200,280.174 137.483,279.829 137.829 C 279.255 138.402,279.028 138.291,279.153 137.500 C 279.179 137.335,278.930 137.200,278.600 137.200 C 278.267 137.200,278.000 137.556,278.000 138.000 C 278.000 138.440,277.809 138.800,277.576 138.800 C 277.343 138.800,277.264 138.620,277.400 138.400 C 277.536 138.180,277.457 138.000,277.224 138.000 C 276.991 138.000,276.800 138.270,276.800 138.600 C 276.800 138.930,276.980 139.200,277.200 139.200 C 277.420 139.200,277.600 139.391,277.600 139.624 C 277.600 139.857,277.420 139.936,277.200 139.800 C 276.980 139.664,276.800 139.844,276.800 140.200 C 276.800 140.570,276.989 140.730,277.241 140.574 C 277.484 140.424,277.396 140.739,277.046 141.274 C 276.571 141.998,276.096 142.225,275.183 142.162 C 273.618 142.053,272.000 143.480,272.000 144.969 C 272.000 145.669,272.159 145.949,272.452 145.768 C 272.725 145.599,272.831 145.706,272.720 146.040 C 272.600 146.401,272.057 146.550,271.152 146.472 C 269.226 146.307,267.344 147.974,268.024 149.244 C 268.343 149.840,268.347 150.015,268.040 149.825 C 267.775 149.661,267.600 149.876,267.600 150.362 C 267.600 150.808,267.218 151.376,266.752 151.626 C 266.156 151.945,265.984 151.949,266.175 151.640 C 266.325 151.398,266.272 151.200,266.057 151.200 C 265.842 151.200,265.562 151.425,265.433 151.700 C 265.247 152.100,265.153 152.100,264.967 151.700 C 264.659 151.041,264.076 151.067,263.371 151.771 C 262.667 152.476,262.641 153.059,263.300 153.367 C 263.700 153.553,263.700 153.647,263.300 153.833 C 262.678 154.123,262.638 155.200,263.249 155.200 C 263.567 155.200,263.575 155.349,263.276 155.708 C 263.044 155.988,262.194 156.185,261.388 156.147 C 259.647 156.066,258.500 157.017,258.500 158.543 C 258.500 159.156,258.670 159.481,258.912 159.331 C 259.151 159.183,259.202 159.273,259.034 159.545 C 258.875 159.802,258.577 159.909,258.372 159.783 C 258.156 159.649,258.000 160.719,258.000 162.334 C 258.000 165.375,257.817 165.613,255.680 165.365 C 254.965 165.281,254.400 165.399,254.400 165.631 C 254.400 165.860,254.227 165.940,254.015 165.810 C 253.781 165.665,253.683 166.438,253.765 167.786 C 253.902 170.059,253.834 170.154,252.151 170.022 C 251.684 169.986,251.195 170.236,251.064 170.578 C 250.933 170.920,250.617 171.200,250.364 171.200 C 250.033 171.200,250.023 171.054,250.329 170.686 C 250.651 170.298,250.572 170.171,250.006 170.171 C 249.594 170.171,249.273 170.268,249.292 170.386 C 249.311 170.504,249.180 170.939,249.000 171.353 C 248.805 171.803,248.860 172.405,249.137 172.848 C 249.706 173.759,249.730 174.128,249.200 173.800 C 248.980 173.664,248.800 173.743,248.800 173.976 C 248.800 174.209,248.519 174.400,248.176 174.400 C 247.791 174.400,247.663 174.591,247.841 174.900 C 247.999 175.175,247.981 175.267,247.801 175.103 C 247.621 174.940,247.228 175.011,246.928 175.260 C 246.496 175.618,246.435 175.575,246.634 175.057 C 246.818 174.576,246.660 174.400,246.043 174.400 C 245.579 174.400,245.200 174.591,245.200 174.824 C 245.200 175.057,245.059 175.160,244.886 175.053 C 244.713 174.946,244.571 175.196,244.571 175.607 C 244.571 176.172,244.698 176.251,245.086 175.929 C 245.469 175.611,245.600 175.668,245.600 176.151 C 245.600 176.508,245.317 176.800,244.971 176.800 C 244.565 176.800,244.368 177.118,244.416 177.700 C 244.548 179.334,244.411 179.551,243.300 179.475 C 242.571 179.425,242.237 179.579,242.310 179.930 C 242.370 180.221,242.232 180.344,242.003 180.202 C 241.774 180.061,241.667 179.815,241.765 179.657 C 241.862 179.499,241.495 179.333,240.949 179.288 C 240.403 179.242,240.057 179.369,240.181 179.568 C 240.304 179.768,240.179 180.008,239.902 180.101 C 239.517 180.230,239.540 180.443,240.000 181.012 C 240.346 181.439,240.388 181.626,240.100 181.453 C 239.328 180.989,239.502 182.035,240.300 182.657 C 240.967 183.176,240.967 183.190,240.300 182.958 C 239.915 182.824,239.600 182.902,239.600 183.131 C 239.600 183.360,239.105 183.604,238.500 183.673 C 237.800 183.754,237.445 184.006,237.523 184.368 C 237.624 184.837,237.537 184.846,237.023 184.419 C 236.458 183.951,236.232 184.107,236.348 184.886 C 236.371 185.043,236.091 185.056,235.726 184.916 C 235.218 184.721,235.124 184.824,235.326 185.351 C 235.495 185.792,235.436 185.946,235.161 185.776 C 234.875 185.599,234.775 186.028,234.862 187.055 L 234.993 188.600 233.097 188.510 C 232.001 188.459,231.200 188.595,231.200 188.834 C 231.200 189.061,231.041 189.149,230.848 189.029 C 230.654 188.910,230.519 189.843,230.548 191.103 L 230.600 193.393 228.327 193.379 C 227.078 193.372,226.143 193.508,226.251 193.683 C 226.359 193.857,226.273 194.000,226.059 194.000 C 225.845 194.000,225.698 194.855,225.732 195.900 C 225.791 197.695,225.739 197.795,224.797 197.716 C 222.717 197.542,221.371 197.968,221.371 198.802 C 221.371 199.241,221.558 199.605,221.786 199.612 C 222.014 199.619,221.885 199.808,221.500 200.032 C 221.115 200.256,220.800 200.881,220.800 201.420 C 220.800 201.959,220.601 202.400,220.357 202.400 C 220.109 202.400,220.022 202.708,220.158 203.100 C 220.380 203.736,220.355 203.740,219.893 203.150 C 219.355 202.461,217.200 202.240,217.200 202.874 C 217.200 203.079,217.021 203.137,216.803 203.002 C 216.574 202.860,216.440 203.177,216.488 203.749 C 216.533 204.295,216.699 204.662,216.857 204.565 C 217.015 204.467,217.261 204.574,217.402 204.803 C 217.544 205.032,217.421 205.170,217.130 205.110 C 216.779 205.037,216.625 205.371,216.675 206.100 C 216.751 207.211,216.534 207.348,214.900 207.216 C 214.318 207.168,214.000 207.365,214.000 207.771 C 214.000 208.117,213.708 208.400,213.351 208.400 C 212.868 208.400,212.811 208.269,213.129 207.886 C 213.451 207.497,213.369 207.371,212.791 207.371 C 211.885 207.371,211.264 209.424,211.960 210.120 C 212.455 210.615,212.563 211.346,212.100 211.066 C 211.709 210.829,210.774 211.840,211.091 212.157 C 211.224 212.291,211.159 212.400,210.947 212.400 C 210.734 212.400,210.362 212.202,210.120 211.960 C 209.424 211.264,207.371 211.885,207.371 212.791 C 207.371 213.369,207.497 213.451,207.886 213.129 C 208.269 212.811,208.400 212.868,208.400 213.351 C 208.400 213.708,208.117 214.000,207.771 214.000 C 207.365 214.000,207.168 214.318,207.216 214.900 C 207.348 216.534,207.211 216.751,206.100 216.675 C 205.371 216.625,205.037 216.779,205.110 217.130 C 205.170 217.421,205.032 217.544,204.803 217.402 C 204.574 217.261,204.467 217.015,204.565 216.857 C 204.662 216.699,204.295 216.533,203.749 216.488 C 203.177 216.440,202.860 216.574,203.002 216.803 C 203.137 217.021,203.079 217.200,202.874 217.200 C 202.240 217.200,202.461 219.355,203.150 219.893 C 203.740 220.355,203.736 220.380,203.100 220.158 C 202.708 220.022,202.400 220.109,202.400 220.357 C 202.400 220.601,201.959 220.800,201.420 220.800 C 200.881 220.800,200.256 221.115,200.032 221.500 C 199.808 221.885,199.619 222.014,199.612 221.786 C 199.605 221.558,199.241 221.371,198.802 221.371 C 197.968 221.371,197.542 222.717,197.716 224.797 C 197.795 225.739,197.695 225.791,195.900 225.732 C 194.855 225.698,194.000 225.845,194.000 226.059 C 194.000 226.273,193.857 226.359,193.683 226.251 C 193.508 226.143,193.372 227.078,193.379 228.327 L 193.393 230.600 191.103 230.548 C 189.843 230.519,188.910 230.654,189.029 230.848 C 189.149 231.041,189.090 231.200,188.898 231.200 C 188.706 231.200,188.515 233.028,188.474 235.263 C 188.392 239.696,187.952 240.523,185.600 240.657 C 185.050 240.689,184.444 240.734,184.253 240.757 C 184.063 240.781,184.001 241.160,184.116 241.600 C 184.231 242.040,184.162 242.400,183.963 242.400 C 183.763 242.400,183.600 242.951,183.600 243.624 C 183.600 244.337,183.433 244.744,183.200 244.600 C 182.980 244.464,182.797 244.588,182.794 244.876 C 182.790 245.242,182.699 245.264,182.494 244.950 C 182.152 244.426,179.812 244.440,179.329 244.968 C 179.141 245.175,179.214 245.205,179.500 245.041 C 179.775 244.882,180.000 244.943,180.000 245.176 C 180.000 245.409,179.820 245.600,179.600 245.600 C 179.380 245.600,179.203 245.915,179.206 246.300 C 179.211 246.898,179.269 246.913,179.600 246.400 C 179.833 246.039,179.990 245.990,179.994 246.276 C 179.997 246.538,179.808 246.872,179.573 247.017 C 179.338 247.162,179.232 247.506,179.338 247.782 C 179.443 248.057,179.226 248.534,178.854 248.841 C 178.100 249.465,176.686 249.708,177.028 249.155 C 177.149 248.960,176.832 248.803,176.324 248.806 C 175.609 248.811,175.531 248.895,175.979 249.179 C 176.433 249.466,176.325 249.603,175.479 249.816 C 174.281 250.117,174.224 250.284,174.799 251.797 C 175.064 252.494,175.064 252.763,174.799 252.599 C 174.579 252.464,174.400 252.633,174.400 252.976 C 174.400 253.319,174.085 253.606,173.700 253.613 C 173.315 253.620,172.668 253.877,172.261 254.185 C 171.435 254.811,170.260 254.570,170.666 253.858 C 170.810 253.606,170.775 253.540,170.587 253.710 C 169.867 254.365,169.951 255.703,170.696 255.443 C 171.315 255.228,171.310 255.268,170.649 255.781 C 170.172 256.150,169.975 256.663,170.111 257.182 C 170.278 257.818,170.133 258.001,169.463 258.006 C 168.745 258.011,168.701 258.083,169.200 258.432 C 169.665 258.758,169.592 258.794,168.871 258.590 C 168.218 258.406,167.771 258.547,167.370 259.064 C 166.854 259.728,166.822 259.732,167.043 259.096 C 167.349 258.219,165.740 258.334,165.173 259.230 C 164.862 259.721,164.658 259.517,164.725 258.783 C 164.736 258.664,164.407 258.541,163.995 258.510 C 163.465 258.470,163.307 258.650,163.455 259.127 C 163.645 259.736,163.615 259.740,163.133 259.166 C 162.840 258.818,162.105 258.409,161.500 258.259 C 160.397 257.984,160.173 257.412,160.350 255.320 C 160.394 254.795,160.100 254.268,159.621 254.011 C 158.961 253.658,158.860 253.691,159.054 254.195 C 159.223 254.637,159.109 254.740,158.647 254.563 C 158.294 254.427,158.104 254.155,158.226 253.958 C 158.348 253.761,158.001 253.600,157.456 253.600 C 155.787 253.600,155.104 253.197,155.653 252.536 C 156.020 252.094,156.009 251.857,155.604 251.483 C 155.190 251.100,155.149 251.116,155.403 251.562 C 155.608 251.920,155.569 252.028,155.297 251.860 C 155.063 251.715,154.922 251.283,154.984 250.898 C 155.254 249.219,153.118 247.907,152.545 249.400 C 152.418 249.730,152.143 250.000,151.934 250.000 C 151.724 250.000,151.670 249.810,151.813 249.579 C 151.956 249.347,151.690 248.825,151.220 248.418 C 150.605 247.884,150.511 247.620,150.884 247.470 C 151.285 247.309,151.278 247.256,150.851 247.232 C 150.409 247.206,150.399 247.084,150.800 246.600 C 151.169 246.156,151.182 245.860,150.852 245.463 C 150.607 245.168,150.488 244.846,150.586 244.747 C 150.685 244.648,150.410 244.541,149.974 244.508 C 149.539 244.475,149.287 244.618,149.415 244.824 C 149.543 245.031,149.457 245.200,149.224 245.200 C 148.991 245.200,148.800 245.016,148.800 244.792 C 148.800 244.568,148.353 244.465,147.807 244.565 C 146.638 244.776,146.269 244.318,146.315 242.709 C 146.340 241.845,146.197 241.592,145.774 241.755 C 145.458 241.876,145.200 241.801,145.200 241.587 C 145.200 241.374,145.470 241.200,145.800 241.200 C 146.523 241.200,146.573 240.733,145.920 240.080 C 145.220 239.380,144.786 239.493,145.080 240.300 C 145.323 240.967,145.298 240.967,144.536 240.300 C 143.706 239.573,143.000 239.353,143.359 239.933 C 143.472 240.117,143.311 240.267,143.000 240.267 C 142.689 240.267,142.528 240.117,142.641 239.933 C 142.755 239.750,142.657 239.600,142.424 239.600 C 142.165 239.600,142.000 238.497,142.000 236.776 C 142.000 234.744,141.871 234.033,141.538 234.238 C 141.227 234.431,141.186 234.346,141.413 233.979 C 142.002 233.026,141.985 231.600,141.385 231.600 C 141.031 231.600,140.917 231.359,141.076 230.945 C 141.250 230.492,141.154 230.354,140.764 230.495 C 140.454 230.608,140.258 230.942,140.330 231.239 C 140.420 231.614,140.233 231.573,139.715 231.104 C 139.257 230.690,138.629 230.520,138.085 230.662 C 137.598 230.789,137.182 230.737,137.161 230.547 C 137.140 230.356,137.091 229.317,137.053 228.238 C 136.963 225.698,135.963 224.883,134.799 226.400 L 134.032 227.400 134.278 226.441 C 134.497 225.587,134.419 225.509,133.562 225.723 C 132.495 225.990,131.344 224.416,132.073 223.687 C 132.277 223.483,132.319 222.817,132.166 222.208 C 131.935 221.287,131.827 221.209,131.524 221.750 C 131.078 222.546,130.400 222.602,130.400 221.843 C 130.400 221.226,129.558 220.800,128.340 220.800 C 127.728 220.800,127.604 220.617,127.800 220.000 C 127.966 219.477,127.871 219.198,127.527 219.194 C 127.096 219.189,127.097 219.126,127.534 218.850 C 127.961 218.579,127.937 218.461,127.415 218.261 C 127.056 218.123,126.816 217.711,126.881 217.345 C 126.974 216.823,126.616 216.647,125.223 216.529 C 123.066 216.347,123.278 216.577,123.055 214.187 C 122.954 213.094,122.855 212.121,122.835 212.024 C 122.816 211.926,122.557 212.179,122.261 212.585 C 121.729 213.312,120.563 213.107,121.021 212.366 C 121.150 212.157,121.423 212.091,121.628 212.217 C 121.832 212.344,122.000 212.257,122.000 212.024 C 122.000 211.511,120.997 211.471,120.074 211.948 C 119.566 212.210,119.155 211.994,118.403 211.068 C 117.812 210.339,117.649 209.933,118.003 210.069 C 118.421 210.229,118.617 210.014,118.658 209.349 C 118.692 208.786,118.493 208.400,118.170 208.400 C 117.845 208.400,117.720 208.153,117.861 207.786 C 118.056 207.278,117.777 207.196,116.236 207.312 C 114.324 207.456,113.263 206.868,113.817 205.973 C 113.974 205.719,113.869 205.367,113.585 205.190 C 113.300 205.014,113.067 204.329,113.067 203.668 C 113.067 202.517,113.002 202.472,111.535 202.606 C 109.578 202.785,108.891 202.110,109.016 200.131 C 109.138 198.209,108.875 197.747,108.189 198.676 C 107.788 199.218,107.538 199.286,107.192 198.945 C 106.843 198.602,106.852 198.415,107.227 198.183 C 107.568 197.973,107.622 198.040,107.400 198.400 C 107.184 198.749,107.233 198.827,107.545 198.634 C 108.253 198.196,107.681 197.600,106.553 197.600 C 105.988 197.600,105.660 197.774,105.800 198.000 C 105.936 198.220,105.840 198.400,105.586 198.400 C 105.333 198.400,105.031 198.042,104.917 197.604 C 104.803 197.167,104.522 196.925,104.293 197.066 C 104.028 197.230,103.999 197.125,104.213 196.779 C 104.802 195.826,104.785 194.400,104.185 194.400 C 103.831 194.400,103.717 194.159,103.876 193.745 C 104.050 193.292,103.954 193.154,103.564 193.295 C 103.254 193.408,103.055 193.733,103.123 194.018 C 103.219 194.426,103.122 194.433,102.664 194.053 C 102.011 193.511,77.129 193.163,77.462 193.700 C 77.564 193.865,77.476 194.000,77.266 194.000 C 76.666 194.000,76.929 196.144,77.598 196.706 C 78.131 197.154,78.132 197.200,77.600 197.106 C 77.082 197.015,76.985 198.358,76.893 206.900 C 76.815 214.106,76.910 216.800,77.242 216.800 C 77.568 216.800,77.559 216.967,77.209 217.389 C 76.818 217.860,76.849 218.106,77.360 218.617 C 78.178 219.435,78.176 219.753,77.355 219.438 C 76.884 219.257,76.776 219.362,76.955 219.828 C 77.090 220.179,77.200 220.541,77.200 220.633 C 77.200 220.725,77.470 220.800,77.800 220.800 C 78.130 220.800,78.400 220.530,78.400 220.200 C 78.400 219.870,78.574 219.600,78.787 219.600 C 79.001 219.600,79.071 219.870,78.945 220.200 C 78.799 220.580,78.950 220.800,79.357 220.800 C 79.711 220.800,80.003 220.575,80.006 220.300 C 80.010 219.964,80.109 219.941,80.306 220.229 C 80.468 220.465,80.901 220.769,81.269 220.905 C 81.696 221.062,81.864 221.433,81.734 221.930 C 81.622 222.359,81.726 222.831,81.965 222.978 C 82.204 223.126,82.400 223.427,82.400 223.647 C 82.400 223.867,82.231 223.943,82.024 223.815 C 81.818 223.687,81.675 223.934,81.707 224.364 C 81.740 224.793,81.893 225.066,82.049 224.970 C 82.204 224.874,82.403 225.009,82.490 225.269 C 82.593 225.578,82.919 225.628,83.424 225.412 C 84.458 224.969,85.333 224.801,85.030 225.103 C 84.896 225.237,85.375 225.595,86.093 225.899 C 87.236 226.381,87.312 226.500,86.700 226.845 C 85.217 227.681,86.313 229.671,88.098 229.384 C 88.483 229.322,88.915 229.463,89.060 229.697 C 89.228 229.969,89.120 230.008,88.762 229.803 C 88.316 229.549,88.300 229.590,88.683 230.004 C 89.057 230.409,89.294 230.420,89.736 230.053 C 90.397 229.504,90.800 230.187,90.800 231.856 C 90.800 232.415,90.974 232.739,91.200 232.600 C 91.420 232.464,91.600 232.644,91.600 233.000 C 91.600 233.356,91.416 233.533,91.190 233.394 C 90.668 233.071,90.864 234.100,91.400 234.494 C 92.032 234.958,92.400 234.850,92.400 234.200 C 92.400 233.870,92.574 233.600,92.787 233.600 C 93.001 233.600,93.078 233.852,92.960 234.159 C 92.798 234.582,93.068 234.687,94.073 234.590 C 95.308 234.471,95.406 234.550,95.492 235.730 C 95.542 236.428,95.902 237.248,96.292 237.553 C 96.913 238.040,96.918 238.079,96.327 237.877 C 95.843 237.711,95.669 237.857,95.710 238.395 C 95.741 238.807,95.864 239.129,95.983 239.109 C 96.102 239.089,96.524 239.214,96.919 239.387 C 97.418 239.604,97.809 239.471,98.194 238.950 C 98.828 238.096,99.961 239.060,99.987 240.476 C 99.994 240.848,100.199 241.276,100.443 241.426 C 100.759 241.622,100.747 241.786,100.400 242.000 C 99.849 242.340,100.223 244.000,100.851 244.000 C 101.069 244.000,101.112 243.775,100.947 243.500 C 100.708 243.103,100.772 243.101,101.253 243.490 C 101.732 243.878,101.970 243.878,102.388 243.490 C 102.787 243.121,102.850 243.119,102.646 243.483 C 102.467 243.801,102.684 243.952,103.287 243.926 C 105.010 243.852,105.118 243.953,104.917 245.448 C 104.784 246.437,104.861 246.810,105.161 246.624 C 105.402 246.475,105.600 246.543,105.600 246.776 C 105.600 247.009,105.450 247.200,105.267 247.200 C 105.083 247.200,104.933 247.467,104.933 247.794 C 104.933 248.629,106.309 248.971,107.096 248.333 C 107.649 247.885,107.700 247.889,107.417 248.358 C 107.150 248.802,107.299 248.862,108.140 248.651 C 109.129 248.402,109.200 248.475,109.200 249.731 C 109.200 250.721,109.439 251.203,110.100 251.551 C 110.595 251.812,110.697 251.939,110.327 251.835 C 109.848 251.700,109.670 251.873,109.712 252.433 C 109.747 252.896,109.983 253.138,110.286 253.022 C 110.569 252.914,110.800 253.034,110.800 253.289 C 110.800 253.544,111.043 253.421,111.339 253.016 C 111.760 252.440,111.949 252.393,112.201 252.801 C 112.414 253.146,112.367 253.227,112.062 253.038 C 111.808 252.881,111.600 252.958,111.600 253.209 C 111.600 253.493,112.090 253.599,112.900 253.489 L 114.200 253.313 114.065 255.873 C 113.975 257.593,114.106 258.651,114.465 259.094 C 114.790 259.494,114.814 259.642,114.527 259.470 C 114.199 259.273,114.061 259.588,114.080 260.493 C 114.112 262.117,114.394 262.652,114.844 261.943 C 115.112 261.520,115.189 261.555,115.194 262.101 C 115.198 262.612,115.498 262.787,116.300 262.745 C 118.757 262.616,119.162 262.757,118.985 263.677 C 118.892 264.160,119.117 264.888,119.486 265.295 C 120.112 265.987,120.112 266.018,119.478 265.774 C 119.003 265.592,118.800 265.720,118.800 266.200 C 118.800 266.645,119.010 266.805,119.400 266.655 C 119.757 266.518,120.000 266.652,120.000 266.985 C 120.000 267.546,121.720 267.613,122.260 267.073 C 122.402 266.931,122.864 267.212,123.285 267.699 C 123.732 268.214,123.874 268.642,123.626 268.725 C 123.072 268.909,123.070 270.800,123.624 270.800 C 123.857 270.800,123.944 270.632,123.817 270.428 C 123.691 270.223,123.757 269.950,123.966 269.821 C 124.707 269.363,124.912 270.529,124.185 271.061 C 123.779 271.357,123.526 271.615,123.624 271.633 C 123.721 271.652,124.660 271.717,125.712 271.779 C 128.065 271.917,128.065 271.917,128.099 274.187 C 128.120 275.562,128.265 275.984,128.664 275.831 C 128.962 275.716,129.200 275.886,129.200 276.213 C 129.200 276.536,129.515 276.797,129.900 276.794 C 130.498 276.789,130.513 276.731,130.000 276.400 C 129.487 276.069,129.502 276.011,130.100 276.006 C 130.485 276.003,130.800 276.174,130.800 276.387 C 130.800 276.601,131.072 276.670,131.405 276.543 C 132.202 276.237,133.213 277.101,132.928 277.844 C 132.804 278.166,133.040 278.825,133.451 279.308 C 134.082 280.048,134.090 280.101,133.500 279.644 C 132.881 279.164,132.800 279.205,132.800 279.994 C 132.800 280.622,132.977 280.818,133.400 280.655 C 133.730 280.529,134.000 280.621,134.000 280.862 C 134.000 281.132,134.257 281.090,134.677 280.749 C 135.254 280.280,135.303 280.283,135.011 280.768 C 134.754 281.194,134.835 281.272,135.334 281.081 C 136.235 280.735,137.200 281.151,137.200 281.886 C 137.200 282.263,137.430 282.397,137.819 282.248 C 138.378 282.034,138.378 282.097,137.819 282.894 C 137.003 284.059,137.035 284.799,137.900 284.806 C 138.498 284.811,138.513 284.869,138.000 285.200 C 137.670 285.413,137.490 285.606,137.600 285.627 C 139.205 285.944,140.791 285.909,140.577 285.562 C 140.433 285.330,140.695 285.378,141.158 285.667 C 141.621 285.956,142.023 286.599,142.050 287.096 C 142.194 289.697,142.227 289.798,142.903 289.684 C 143.358 289.607,143.513 289.761,143.366 290.144 C 143.194 290.593,143.505 290.707,144.773 290.660 C 146.355 290.602,146.400 290.636,146.400 291.900 C 146.400 292.615,146.591 293.200,146.824 293.200 C 147.057 293.200,147.112 293.425,146.947 293.700 C 146.743 294.040,146.863 294.024,147.323 293.651 C 147.731 293.321,148.000 293.273,148.000 293.531 C 148.000 293.767,147.685 294.144,147.300 294.368 C 146.460 294.857,146.408 294.845,150.486 295.149 C 150.863 295.177,151.376 295.582,151.626 296.048 C 151.876 296.515,151.908 296.790,151.698 296.660 C 151.476 296.523,151.352 297.049,151.402 297.912 C 151.514 299.849,151.542 299.909,152.000 299.200 C 152.333 298.684,152.389 298.695,152.394 299.282 C 152.400 299.911,153.402 299.963,165.200 299.951 C 173.289 299.942,178.000 299.793,178.000 299.545 C 178.000 299.329,177.792 299.281,177.538 299.438 C 177.245 299.619,177.185 299.547,177.374 299.242 C 177.603 298.871,177.818 298.880,178.312 299.281 C 178.793 299.670,178.878 299.675,178.653 299.300 C 178.477 299.006,178.559 298.800,178.853 298.800 C 179.136 298.800,179.016 298.527,178.576 298.170 C 178.149 297.824,178.006 297.643,178.258 297.768 C 178.759 298.017,179.200 297.174,179.200 295.967 C 179.200 295.539,179.476 295.200,179.824 295.200 C 180.216 295.200,180.336 295.015,180.147 294.700 C 179.910 294.306,179.973 294.303,180.442 294.681 C 181.687 295.688,183.394 295.051,183.460 293.555 C 183.493 292.810,183.538 291.885,183.560 291.500 C 183.588 291.011,183.935 290.800,184.711 290.800 C 185.323 290.800,186.127 290.445,186.500 290.008 C 186.885 289.559,187.442 289.318,187.789 289.451 C 188.181 289.601,188.400 289.455,188.400 289.043 C 188.400 288.689,188.175 288.397,187.900 288.394 C 187.590 288.390,187.552 288.276,187.800 288.094 C 188.158 287.831,188.345 287.184,188.487 285.718 C 188.512 285.452,188.710 285.344,188.926 285.478 C 189.889 286.073,192.066 285.948,191.822 285.313 C 191.613 284.769,191.672 284.760,192.268 285.243 C 192.722 285.612,192.852 285.631,192.653 285.300 C 192.488 285.025,192.498 284.800,192.676 284.800 C 192.854 284.800,193.025 284.363,193.056 283.829 C 193.095 283.152,192.944 282.923,192.556 283.072 C 191.792 283.365,191.858 283.086,192.812 281.986 C 193.438 281.264,194.058 281.041,195.512 281.014 L 197.400 280.979 197.484 279.476 C 197.544 278.391,197.433 278.054,197.084 278.263 C 196.818 278.423,196.870 278.204,197.200 277.777 C 198.039 276.690,198.525 276.381,199.074 276.582 C 199.335 276.677,199.636 276.540,199.743 276.278 C 199.887 275.923,199.945 275.928,199.968 276.300 C 199.986 276.575,200.278 276.800,200.618 276.800 C 200.984 276.800,201.187 276.515,201.118 276.100 C 201.037 275.623,201.223 275.437,201.700 275.518 C 202.115 275.587,202.400 275.384,202.400 275.018 C 202.400 274.678,202.175 274.397,201.900 274.394 C 201.538 274.389,201.552 274.291,201.951 274.039 C 202.254 273.847,202.401 273.526,202.278 273.326 C 202.012 272.896,202.315 272.420,203.377 271.600 C 203.804 271.270,204.023 271.218,203.863 271.484 C 203.654 271.833,203.991 271.944,205.076 271.884 C 206.536 271.802,206.582 271.753,206.653 270.200 C 206.693 269.320,206.743 268.274,206.763 267.876 C 206.783 267.478,206.980 267.264,207.200 267.400 C 207.420 267.536,207.600 267.446,207.600 267.200 C 207.600 266.938,207.807 266.886,208.100 267.074 C 208.774 267.507,210.400 267.522,210.400 267.095 C 210.400 266.907,210.625 266.888,210.900 267.053 C 211.275 267.278,211.270 267.193,210.881 266.712 C 210.480 266.218,210.471 266.003,210.842 265.774 C 211.147 265.585,211.219 265.645,211.038 265.938 C 210.881 266.192,210.925 266.400,211.135 266.400 C 211.345 266.400,211.479 265.662,211.433 264.760 C 211.339 262.924,212.064 262.358,214.100 262.676 C 214.747 262.777,215.200 262.664,215.200 262.400 C 215.200 262.154,214.992 262.081,214.738 262.238 C 214.445 262.419,214.385 262.347,214.574 262.042 C 214.803 261.671,215.018 261.680,215.512 262.081 C 215.905 262.399,216.045 262.419,215.874 262.134 C 215.721 261.878,215.821 261.577,216.098 261.466 C 216.390 261.348,216.296 261.250,215.871 261.232 C 215.209 261.203,215.200 261.143,215.771 260.571 C 216.254 260.089,216.384 259.181,216.331 256.671 L 216.262 253.400 215.989 256.000 L 215.716 258.600 215.758 256.000 L 215.800 253.400 217.300 253.513 C 218.431 253.599,218.800 253.476,218.800 253.013 C 218.800 252.676,218.991 252.400,219.224 252.400 C 219.457 252.400,219.546 252.564,219.422 252.765 C 219.298 252.966,219.512 253.083,219.898 253.026 C 220.463 252.942,220.599 252.521,220.597 250.861 C 220.595 248.852,220.831 248.531,222.142 248.767 C 222.330 248.800,222.735 248.620,223.042 248.365 C 223.446 248.030,223.600 248.026,223.600 248.351 C 223.600 248.940,224.672 248.931,225.038 248.338 C 225.226 248.035,225.131 247.976,224.762 248.168 C 224.453 248.328,224.504 248.209,224.875 247.904 C 225.655 247.262,225.603 246.100,224.772 245.574 C 224.304 245.278,224.327 245.211,224.900 245.206 C 225.298 245.203,225.600 244.898,225.600 244.500 C 225.600 243.925,225.939 243.808,227.500 243.847 C 229.367 243.893,230.400 243.487,230.400 242.708 C 230.400 242.492,230.130 242.418,229.800 242.545 C 229.024 242.842,229.040 242.617,229.854 241.803 C 230.314 241.343,230.383 241.023,230.086 240.726 C 229.265 239.905,229.989 239.304,231.578 239.487 C 232.538 239.598,233.227 239.479,233.418 239.170 C 233.615 238.853,233.559 238.778,233.262 238.962 C 233.008 239.119,232.800 239.057,232.800 238.824 C 232.800 238.265,233.325 238.285,233.907 238.867 C 234.583 239.543,235.039 238.170,234.396 237.395 C 234.004 236.923,234.005 236.800,234.400 236.800 C 234.777 236.800,234.765 236.636,234.349 236.123 C 233.976 235.663,233.960 235.543,234.300 235.747 C 234.615 235.936,234.800 235.816,234.800 235.424 C 234.800 235.081,235.081 234.800,235.424 234.800 C 235.816 234.800,235.936 234.615,235.747 234.300 C 235.543 233.960,235.663 233.976,236.123 234.349 C 236.636 234.765,236.800 234.777,236.800 234.400 C 236.800 234.005,236.923 234.004,237.395 234.396 C 238.170 235.039,239.543 234.583,238.867 233.907 C 238.285 233.325,238.265 232.800,238.824 232.800 C 239.057 232.800,239.119 233.008,238.962 233.262 C 238.778 233.559,238.853 233.615,239.170 233.418 C 239.479 233.227,239.598 232.538,239.487 231.578 C 239.304 229.989,239.905 229.265,240.726 230.086 C 241.023 230.383,241.343 230.314,241.803 229.854 C 242.617 229.040,242.842 229.024,242.545 229.800 C 242.418 230.130,242.492 230.400,242.708 230.400 C 243.487 230.400,243.893 229.367,243.847 227.500 C 243.808 225.939,243.925 225.600,244.500 225.600 C 244.898 225.600,245.203 225.298,245.206 224.900 C 245.211 224.327,245.278 224.304,245.574 224.772 C 246.100 225.603,247.262 225.655,247.904 224.875 C 248.209 224.504,248.328 224.453,248.168 224.762 C 247.976 225.131,248.035 225.226,248.338 225.038 C 248.931 224.672,248.940 223.600,248.351 223.600 C 248.026 223.600,248.030 223.446,248.365 223.042 C 248.620 222.735,248.800 222.330,248.767 222.142 C 248.531 220.831,248.852 220.595,250.861 220.597 C 252.521 220.599,252.942 220.463,253.026 219.898 C 253.083 219.512,252.966 219.298,252.765 219.422 C 252.564 219.546,252.400 219.457,252.400 219.224 C 252.400 218.991,252.685 218.800,253.033 218.800 C 253.519 218.800,253.624 218.491,253.485 217.466 C 253.318 216.221,253.373 216.144,254.315 216.324 C 254.990 216.453,255.499 216.279,255.850 215.799 C 256.283 215.207,256.482 215.170,256.987 215.590 C 257.721 216.198,257.683 216.278,257.814 213.849 C 257.920 211.887,258.469 211.098,259.464 211.480 C 259.759 211.593,260.000 211.486,260.000 211.243 C 260.000 210.999,260.281 210.800,260.624 210.800 C 260.967 210.800,261.136 210.980,261.000 211.200 C 260.864 211.420,261.033 211.600,261.376 211.600 C 261.719 211.600,262.000 211.330,262.000 211.000 C 262.000 210.670,262.180 210.400,262.400 210.400 C 263.112 210.400,262.823 209.601,262.100 209.572 C 261.527 209.549,261.509 209.494,262.000 209.272 C 262.330 209.122,262.618 208.775,262.640 208.500 C 262.662 208.225,262.707 207.685,262.740 207.300 C 262.788 206.733,263.160 206.609,264.700 206.647 C 266.567 206.693,267.600 206.287,267.600 205.508 C 267.600 205.292,267.330 205.218,267.000 205.345 C 266.224 205.642,266.240 205.417,267.054 204.603 C 267.514 204.143,267.583 203.823,267.286 203.526 C 266.455 202.695,267.198 202.068,268.796 202.252 C 269.733 202.360,270.450 202.243,270.629 201.953 C 270.815 201.652,270.753 201.582,270.462 201.762 C 270.208 201.919,270.000 201.857,270.000 201.624 C 270.000 201.076,270.522 201.082,271.075 201.635 C 271.388 201.948,271.591 201.938,271.800 201.600 C 271.960 201.342,271.890 200.930,271.645 200.685 C 271.400 200.440,271.203 200.051,271.206 199.820 C 271.209 199.589,271.379 199.663,271.582 199.984 C 271.849 200.406,271.941 200.201,271.914 199.246 C 271.872 197.774,272.476 197.190,273.707 197.512 C 274.261 197.657,274.433 197.577,274.239 197.263 C 274.082 197.008,274.128 196.800,274.343 196.800 C 274.558 196.800,274.804 197.012,274.891 197.272 C 274.985 197.555,275.345 197.630,275.791 197.459 C 276.357 197.242,276.423 197.063,276.067 196.707 C 275.485 196.125,275.465 195.600,276.024 195.600 C 276.257 195.600,276.336 195.780,276.200 196.000 C 276.064 196.220,276.156 196.400,276.404 196.400 C 276.699 196.400,276.790 195.780,276.667 194.601 C 276.561 193.586,276.637 192.899,276.840 193.025 C 277.038 193.147,277.200 193.035,277.200 192.775 C 277.200 192.433,277.374 192.447,277.830 192.825 C 278.353 193.259,278.524 193.250,278.830 192.774 C 279.152 192.275,279.248 192.275,279.570 192.774 C 280.240 193.817,281.135 192.564,281.067 190.678 C 281.022 189.413,281.230 188.770,281.903 188.097 C 282.568 187.432,282.800 187.355,282.800 187.800 C 282.800 188.173,283.178 188.400,283.800 188.400 C 284.350 188.400,284.800 188.220,284.800 188.000 C 284.800 187.780,285.014 187.645,285.276 187.700 C 285.538 187.755,285.825 187.464,285.915 187.053 C 286.016 186.585,285.913 186.407,285.638 186.576 C 285.390 186.730,285.200 186.567,285.200 186.200 C 285.200 185.838,285.391 185.671,285.633 185.820 C 285.891 185.980,286.033 185.788,285.986 185.344 C 285.596 181.653,286.010 179.200,287.024 179.200 C 287.666 179.200,287.946 179.036,287.775 178.760 C 287.602 178.480,287.841 178.501,288.433 178.817 C 289.120 179.186,289.402 179.195,289.515 178.855 C 289.599 178.602,289.833 178.497,290.034 178.621 C 290.235 178.745,290.413 178.702,290.429 178.524 C 290.444 178.346,290.542 177.496,290.646 176.636 C 290.823 175.179,290.787 175.111,290.118 175.636 C 289.479 176.138,289.454 176.130,289.897 175.563 C 290.170 175.213,290.260 174.779,290.097 174.599 C 289.933 174.419,290.013 174.394,290.272 174.542 C 290.532 174.691,290.847 174.647,290.973 174.444 C 291.098 174.241,291.540 174.164,291.955 174.272 C 292.370 174.381,292.831 174.274,292.978 174.035 C 293.126 173.796,293.462 173.603,293.724 173.606 C 294.010 173.610,293.961 173.767,293.600 174.000 C 293.087 174.331,293.102 174.389,293.700 174.394 C 294.085 174.397,294.400 174.209,294.400 173.976 C 294.400 173.743,294.577 173.662,294.794 173.797 C 295.030 173.942,295.166 173.430,295.131 172.520 C 295.009 169.266,294.961 169.329,297.427 169.477 C 298.860 169.563,299.565 169.466,299.403 169.205 C 299.266 168.982,299.343 168.800,299.576 168.800 C 299.809 168.800,299.997 168.485,299.994 168.100 C 299.989 167.502,299.931 167.487,299.600 168.000 C 299.367 168.361,299.210 168.410,299.206 168.124 C 299.203 167.862,299.389 167.531,299.619 167.388 C 299.901 167.214,299.869 166.919,299.519 166.488 C 299.227 166.127,299.199 165.966,299.455 166.119 C 299.713 166.273,299.992 166.073,300.102 165.654 C 300.253 165.076,300.628 164.937,301.839 165.011 C 303.616 165.118,304.493 164.873,304.174 164.358 C 304.052 164.161,304.147 164.000,304.384 164.000 C 304.641 164.000,304.717 163.607,304.572 163.029 C 304.245 161.728,304.612 160.710,305.637 160.069 C 306.103 159.779,306.364 159.734,306.218 159.970 C 306.072 160.207,306.133 160.400,306.353 160.400 C 306.573 160.400,306.864 160.220,307.000 160.000 C 307.136 159.780,307.427 159.600,307.647 159.600 C 307.867 159.600,307.928 159.793,307.782 160.030 C 307.636 160.266,307.895 160.222,308.358 159.933 C 309.245 159.380,309.561 158.549,308.700 159.035 C 308.300 159.261,308.300 159.210,308.700 158.779 C 308.975 158.482,309.200 157.995,309.200 157.696 C 309.200 157.368,309.002 157.272,308.700 157.453 C 308.089 157.820,309.143 156.408,310.000 155.713 C 310.667 155.171,311.350 155.034,311.062 155.500 C 310.960 155.665,311.309 155.800,311.838 155.800 C 312.367 155.800,312.800 155.654,312.800 155.476 C 312.800 155.298,312.967 155.256,313.171 155.382 C 313.375 155.508,313.665 155.227,313.814 154.756 C 313.985 154.216,313.885 153.773,313.543 153.556 C 313.203 153.341,313.173 153.210,313.463 153.206 C 313.720 153.203,313.836 152.861,313.725 152.434 C 313.510 151.612,314.893 150.563,315.608 151.005 C 315.824 151.138,316.003 151.012,316.006 150.724 C 316.011 150.307,316.082 150.310,316.356 150.743 C 316.573 151.085,317.016 151.185,317.556 151.014 C 318.027 150.865,318.308 150.575,318.182 150.371 C 318.056 150.167,318.140 150.000,318.368 150.000 C 318.643 150.000,318.627 149.658,318.322 148.989 C 317.973 148.223,317.975 147.865,318.331 147.509 C 318.981 146.859,319.001 127.600,318.351 127.600 C 318.035 127.600,318.045 127.428,318.385 127.018 C 318.892 126.408,318.591 125.435,318.007 125.795 C 317.822 125.910,317.721 125.688,317.783 125.302 C 318.051 123.639,315.701 122.270,315.033 123.700 C 314.847 124.100,314.753 124.100,314.567 123.700 C 314.257 123.036,295.586 122.974,294.925 123.635 C 294.612 123.948,294.415 123.948,294.222 123.635 C 293.802 122.957,292.000 123.101,292.000 123.813 M166.087 260.473 C 165.548 261.012,165.120 260.275,165.458 259.392 C 165.704 258.753,165.742 258.753,166.101 259.395 C 166.346 259.833,166.341 260.219,166.087 260.473 " stroke="none" fill="#cccccc" fill-rule="evenodd"></path><path id="path1" d="M290.800 123.624 C 290.800 123.857,290.980 123.936,291.200 123.800 C 291.420 123.664,291.600 123.728,291.600 123.943 C 291.600 124.158,291.416 124.425,291.190 124.537 C 290.964 124.649,291.010 124.694,291.290 124.637 C 292.051 124.483,292.175 123.200,291.429 123.200 C 291.083 123.200,290.800 123.391,290.800 123.624 M317.534 123.900 C 317.733 124.285,317.850 124.885,317.793 125.233 C 317.737 125.582,317.940 125.867,318.245 125.867 C 318.936 125.867,318.972 125.336,318.300 125.065 C 317.900 124.904,317.900 124.857,318.300 124.832 C 318.575 124.814,318.800 124.609,318.800 124.376 C 318.800 124.143,318.589 124.083,318.332 124.242 C 318.017 124.436,317.948 124.313,318.119 123.866 C 318.288 123.427,318.170 123.200,317.773 123.200 C 317.329 123.200,317.267 123.383,317.534 123.900 M286.000 128.600 C 286.000 128.933,286.356 129.200,286.800 129.200 C 287.307 129.200,287.588 128.944,287.568 128.500 C 287.550 128.082,287.456 128.001,287.335 128.300 C 287.224 128.575,286.958 128.800,286.743 128.800 C 286.528 128.800,286.464 128.620,286.600 128.400 C 286.736 128.180,286.657 128.000,286.424 128.000 C 286.191 128.000,286.000 128.270,286.000 128.600 M286.000 131.800 C 286.000 132.244,285.533 132.400,284.200 132.400 C 282.867 132.400,282.400 132.556,282.400 133.000 C 282.400 133.330,282.190 133.600,281.933 133.600 C 281.677 133.600,281.601 133.735,281.766 133.899 C 281.931 134.064,282.276 133.923,282.533 133.586 C 283.112 132.826,285.385 132.561,284.957 133.303 C 284.800 133.576,285.144 133.369,285.723 132.842 C 286.302 132.315,286.680 131.730,286.564 131.542 C 286.242 131.021,286.000 131.132,286.000 131.800 M276.800 137.600 C 276.800 137.820,276.991 138.000,277.224 138.000 C 277.457 138.000,277.536 138.180,277.400 138.400 C 277.264 138.620,277.343 138.800,277.576 138.800 C 277.809 138.800,278.000 138.440,278.000 138.000 C 278.000 137.556,277.733 137.200,277.400 137.200 C 277.070 137.200,276.800 137.380,276.800 137.600 M279.017 137.572 C 278.629 138.200,279.367 138.352,279.916 137.758 C 280.339 137.300,280.326 137.200,279.839 137.200 C 279.514 137.200,279.144 137.368,279.017 137.572 M272.143 142.605 C 272.015 142.938,272.109 143.449,272.352 143.742 C 272.594 144.034,272.660 144.421,272.497 144.601 C 272.333 144.781,272.434 144.793,272.719 144.629 C 273.096 144.411,273.121 144.186,272.809 143.811 C 272.493 143.430,272.540 143.232,272.990 143.059 C 273.325 142.930,273.586 142.594,273.568 142.313 C 273.544 141.911,273.493 141.908,273.335 142.300 C 273.224 142.575,272.958 142.800,272.743 142.800 C 272.528 142.800,272.464 142.620,272.600 142.400 C 272.736 142.180,272.741 142.000,272.611 142.000 C 272.481 142.000,272.270 142.272,272.143 142.605 M267.762 146.862 C 267.585 147.148,267.652 147.215,267.938 147.038 C 268.192 146.881,268.400 146.943,268.400 147.176 C 268.400 147.409,268.190 147.600,267.933 147.600 C 267.677 147.600,267.589 147.722,267.738 147.871 C 267.887 148.020,268.374 147.750,268.820 147.271 C 269.622 146.409,269.623 146.400,268.839 146.400 C 268.404 146.400,267.919 146.608,267.762 146.862 M318.154 147.776 C 318.032 148.092,318.117 148.677,318.341 149.076 C 318.680 149.678,318.743 149.582,318.713 148.500 C 318.675 147.094,318.502 146.869,318.154 147.776 M310.237 155.540 C 310.122 155.726,310.606 155.888,311.314 155.899 C 312.362 155.915,312.452 155.857,311.800 155.587 C 310.732 155.145,310.486 155.138,310.237 155.540 M258.267 156.267 C 257.862 156.671,257.948 159.521,258.372 159.783 C 258.577 159.909,258.875 159.802,259.034 159.545 C 259.202 159.273,259.151 159.183,258.912 159.331 C 258.217 159.760,258.446 157.454,259.149 156.940 C 259.507 156.679,259.664 156.331,259.499 156.166 C 259.335 156.001,259.200 156.077,259.200 156.333 C 259.200 156.590,259.009 156.800,258.776 156.800 C 258.543 156.800,258.464 156.620,258.600 156.400 C 258.880 155.947,258.670 155.863,258.267 156.267 M307.006 159.990 C 306.908 160.149,307.361 160.294,308.014 160.313 C 308.666 160.331,309.200 160.201,309.200 160.023 C 309.200 159.622,307.252 159.592,307.006 159.990 M252.200 169.514 C 251.320 169.577,250.330 169.740,250.000 169.877 C 249.670 170.015,249.265 170.098,249.100 170.064 C 248.935 170.029,248.800 170.274,248.800 170.609 C 248.800 171.132,248.956 171.119,249.900 170.516 C 250.931 169.858,250.965 169.858,250.451 170.507 C 250.119 170.926,250.072 171.200,250.331 171.200 C 250.567 171.200,250.926 170.903,251.130 170.540 C 251.360 170.129,251.803 169.960,252.305 170.091 C 252.749 170.207,253.351 170.154,253.644 169.973 C 254.404 169.503,254.029 169.384,252.200 169.514 M244.578 175.300 C 244.616 175.795,244.524 176.380,244.373 176.600 C 243.943 177.231,243.703 179.600,244.069 179.600 C 244.432 179.600,244.527 179.077,244.416 177.700 C 244.368 177.118,244.565 176.800,244.971 176.800 C 245.317 176.800,245.600 176.519,245.600 176.176 C 245.600 175.822,245.409 175.671,245.157 175.826 C 244.859 176.011,244.803 175.822,244.984 175.250 C 245.132 174.783,245.086 174.400,244.882 174.400 C 244.677 174.400,244.540 174.805,244.578 175.300 M235.600 184.024 C 235.600 184.257,235.420 184.336,235.200 184.200 C 234.980 184.064,234.800 184.313,234.800 184.753 C 234.800 185.193,234.978 185.663,235.195 185.797 C 235.431 185.943,235.484 185.762,235.326 185.351 C 235.124 184.824,235.218 184.721,235.726 184.916 C 236.091 185.056,236.371 185.043,236.348 184.886 C 236.236 184.137,236.448 183.941,236.933 184.345 C 237.337 184.680,237.467 184.643,237.467 184.194 C 237.467 183.838,237.092 183.600,236.533 183.600 C 236.020 183.600,235.600 183.791,235.600 184.024 M230.571 190.421 C 230.571 190.817,230.790 191.025,231.086 190.912 C 231.369 190.803,231.600 190.494,231.600 190.224 C 231.600 189.954,231.369 189.733,231.086 189.733 C 230.803 189.733,230.571 190.043,230.571 190.421 M85.900 193.499 C 88.595 193.568,93.005 193.568,95.700 193.499 C 98.395 193.430,96.190 193.373,90.800 193.373 C 85.410 193.373,83.205 193.430,85.900 193.499 M103.854 193.802 C 103.715 194.165,103.856 194.400,104.213 194.400 C 104.860 194.400,105.007 193.775,104.442 193.426 C 104.245 193.304,103.981 193.474,103.854 193.802 M225.600 193.699 C 225.600 193.894,225.983 193.932,226.450 193.784 C 227.022 193.603,227.211 193.659,227.026 193.957 C 226.874 194.203,227.011 194.400,227.334 194.400 C 227.653 194.400,228.002 194.173,228.108 193.895 C 228.240 193.551,227.869 193.382,226.951 193.366 C 226.208 193.354,225.600 193.503,225.600 193.699 M275.600 195.976 C 275.600 196.183,275.783 196.466,276.007 196.604 C 276.230 196.742,276.294 197.068,276.148 197.328 C 276.002 197.587,276.134 197.553,276.441 197.250 C 276.876 196.822,276.888 196.659,276.498 196.516 C 276.221 196.415,276.097 196.167,276.221 195.966 C 276.345 195.765,276.257 195.600,276.024 195.600 C 275.791 195.600,275.600 195.769,275.600 195.976 M107.230 198.164 C 106.871 198.596,106.874 198.798,107.241 199.025 C 107.512 199.193,107.930 199.037,108.200 198.667 C 108.464 198.307,108.825 198.145,109.004 198.306 C 109.182 198.468,109.199 198.375,109.041 198.100 C 108.658 197.436,107.809 197.466,107.230 198.164 M220.800 199.387 C 220.800 200.152,220.953 200.316,221.480 200.114 C 221.869 199.965,221.964 199.788,221.702 199.701 C 221.451 199.617,221.344 199.290,221.465 198.974 C 221.586 198.658,221.486 198.400,221.243 198.400 C 220.999 198.400,220.800 198.844,220.800 199.387 M270.098 201.700 C 270.308 202.336,272.000 202.607,272.000 202.004 C 272.000 201.756,271.832 201.656,271.628 201.783 C 271.423 201.909,271.142 201.830,271.004 201.607 C 270.645 201.026,269.901 201.103,270.098 201.700 M113.080 202.935 C 112.792 203.686,113.180 205.200,113.661 205.200 C 113.869 205.200,113.850 204.867,113.617 204.432 C 113.318 203.873,113.342 203.615,113.703 203.482 C 114.071 203.347,114.084 203.176,113.753 202.823 C 113.409 202.456,113.254 202.482,113.080 202.935 M113.632 206.276 C 113.614 206.538,113.816 206.886,114.080 207.049 C 114.734 207.454,116.400 207.500,116.400 207.113 C 116.400 206.941,115.875 206.800,115.233 206.800 C 114.592 206.800,113.976 206.575,113.865 206.300 C 113.719 205.939,113.654 205.933,113.632 206.276 M215.600 206.704 C 215.050 206.778,214.330 206.949,214.000 207.083 C 213.670 207.217,213.130 207.303,212.800 207.275 C 212.399 207.240,212.367 207.297,212.702 207.446 C 212.979 207.568,213.103 207.833,212.979 208.034 C 212.855 208.235,213.033 208.400,213.376 208.400 C 213.719 208.400,214.000 208.109,214.000 207.753 C 214.000 207.284,214.267 207.158,214.974 207.293 C 215.510 207.395,216.180 207.336,216.463 207.161 C 217.162 206.729,216.806 206.540,215.600 206.704 M117.854 207.802 C 117.715 208.165,117.856 208.400,118.213 208.400 C 118.860 208.400,119.007 207.775,118.442 207.426 C 118.245 207.304,117.981 207.474,117.854 207.802 M118.117 209.780 C 117.738 210.212,117.748 210.425,118.167 210.773 C 118.587 211.121,118.700 211.001,118.700 210.207 C 118.700 209.653,118.678 209.207,118.650 209.215 C 118.623 209.224,118.383 209.478,118.117 209.780 M262.000 211.000 C 262.000 211.330,262.180 211.600,262.400 211.600 C 262.620 211.600,262.800 211.330,262.800 211.000 C 262.800 210.670,262.620 210.400,262.400 210.400 C 262.180 210.400,262.000 210.670,262.000 211.000 M122.000 212.024 C 122.000 212.257,121.832 212.344,121.628 212.217 C 121.423 212.091,121.150 212.157,121.021 212.366 C 120.597 213.052,121.711 213.337,122.200 212.667 C 122.464 212.307,122.825 212.145,123.004 212.306 C 123.182 212.468,123.199 212.375,123.041 212.100 C 122.690 211.491,122.000 211.440,122.000 212.024 M207.275 212.800 C 207.303 213.130,207.222 213.670,207.096 214.000 C 206.655 215.147,206.513 216.800,206.855 216.800 C 207.231 216.800,207.328 216.289,207.216 214.900 C 207.168 214.318,207.365 214.000,207.771 214.000 C 208.117 214.000,208.400 213.719,208.400 213.376 C 208.400 213.033,208.235 212.855,208.034 212.979 C 207.833 213.103,207.568 212.979,207.446 212.702 C 207.297 212.367,207.240 212.399,207.275 212.800 M256.000 215.624 C 256.000 215.857,255.775 215.920,255.500 215.765 C 255.126 215.554,255.131 215.623,255.517 216.038 C 255.957 216.511,256.089 216.505,256.411 215.997 C 256.662 215.598,256.790 215.566,256.794 215.900 C 256.797 216.175,257.070 216.400,257.400 216.400 C 257.730 216.400,258.000 216.209,258.000 215.976 C 258.000 215.743,257.832 215.656,257.628 215.783 C 257.423 215.909,257.142 215.830,257.004 215.607 C 256.674 215.072,256.000 215.084,256.000 215.624 M126.955 217.267 C 126.980 217.744,127.270 218.207,127.600 218.297 C 128.088 218.430,128.098 218.389,127.655 218.079 C 127.219 217.774,127.213 217.662,127.626 217.525 C 127.910 217.430,128.009 217.139,127.847 216.876 C 127.378 216.117,126.905 216.324,126.955 217.267 M76.892 218.875 C 76.979 219.136,77.264 219.421,77.525 219.508 C 77.818 219.606,77.907 219.423,77.757 219.033 C 77.478 218.306,76.652 218.155,76.892 218.875 M252.400 219.176 C 252.400 219.383,252.583 219.666,252.807 219.804 C 253.030 219.942,253.109 220.223,252.983 220.428 C 252.856 220.632,252.943 220.800,253.176 220.800 C 253.409 220.800,253.600 220.350,253.600 219.800 C 253.600 219.178,253.373 218.800,253.000 218.800 C 252.670 218.800,252.400 218.969,252.400 219.176 M129.900 221.048 C 130.175 221.168,130.400 221.522,130.400 221.833 C 130.400 222.619,131.169 222.545,131.483 221.729 C 131.713 221.128,131.774 221.138,132.067 221.829 C 132.381 222.571,132.390 222.570,132.293 221.800 C 132.217 221.192,131.859 220.980,130.797 220.914 C 130.029 220.867,129.625 220.927,129.900 221.048 M198.400 221.243 C 198.400 221.486,198.658 221.586,198.974 221.465 C 199.290 221.344,199.617 221.451,199.701 221.702 C 199.788 221.964,199.965 221.869,200.114 221.480 C 200.316 220.953,200.152 220.800,199.387 220.800 C 198.844 220.800,198.400 220.999,198.400 221.243 M247.856 224.678 C 247.405 225.128,247.581 225.600,248.200 225.600 C 248.530 225.600,248.800 225.431,248.800 225.224 C 248.800 224.719,248.175 224.358,247.856 224.678 M136.267 225.867 C 135.851 226.282,135.951 226.696,136.518 226.913 C 136.821 227.029,137.060 226.798,137.093 226.356 C 137.150 225.597,136.765 225.369,136.267 225.867 M193.366 226.951 C 193.382 227.869,193.551 228.240,193.895 228.108 C 194.173 228.002,194.400 227.653,194.400 227.334 C 194.400 227.011,194.203 226.874,193.957 227.026 C 193.659 227.211,193.603 227.022,193.784 226.450 C 193.932 225.983,193.894 225.600,193.699 225.600 C 193.503 225.600,193.354 226.208,193.366 226.951 M86.000 226.587 C 86.000 226.944,86.235 227.085,86.598 226.946 C 86.926 226.819,87.096 226.555,86.974 226.358 C 86.625 225.793,86.000 225.940,86.000 226.587 M86.000 229.373 C 86.000 229.770,86.227 229.888,86.666 229.719 C 87.113 229.548,87.236 229.617,87.042 229.932 C 86.883 230.189,86.943 230.400,87.176 230.400 C 87.409 230.400,87.603 230.175,87.606 229.900 C 87.611 229.538,87.709 229.552,87.961 229.951 C 88.153 230.254,88.514 230.377,88.762 230.224 C 89.397 229.831,88.937 229.249,88.098 229.384 C 87.714 229.446,87.085 229.333,86.700 229.134 C 86.183 228.867,86.000 228.929,86.000 229.373 M141.054 231.002 C 140.915 231.365,141.056 231.600,141.413 231.600 C 142.060 231.600,142.207 230.975,141.642 230.626 C 141.445 230.504,141.181 230.674,141.054 231.002 M189.733 231.086 C 189.733 231.369,189.954 231.600,190.224 231.600 C 190.494 231.600,190.803 231.369,190.912 231.086 C 191.025 230.790,190.817 230.571,190.421 230.571 C 190.043 230.571,189.733 230.803,189.733 231.086 M238.400 233.176 C 238.400 233.383,238.583 233.666,238.807 233.804 C 239.030 233.942,239.094 234.268,238.948 234.528 C 238.745 234.890,238.802 234.889,239.194 234.527 C 239.476 234.267,239.598 233.772,239.466 233.427 C 239.206 232.749,238.400 232.560,238.400 233.176 M95.246 237.100 C 95.220 238.059,95.385 238.800,95.624 238.800 C 95.857 238.800,95.936 238.980,95.800 239.200 C 95.664 239.420,95.861 239.600,96.238 239.600 C 96.877 239.600,96.879 239.550,96.262 238.869 C 95.407 237.924,95.421 237.563,96.300 237.866 C 96.948 238.090,96.951 238.067,96.334 237.554 C 95.967 237.249,95.583 236.640,95.480 236.200 C 95.377 235.760,95.272 236.165,95.246 237.100 M98.184 238.827 C 98.039 239.061,98.028 239.361,98.160 239.493 C 98.292 239.625,98.400 239.501,98.400 239.218 C 98.400 238.801,98.517 238.799,99.009 239.208 C 99.518 239.630,99.577 239.606,99.366 239.057 C 99.078 238.304,98.568 238.205,98.184 238.827 M232.800 238.813 C 232.800 239.481,234.013 239.750,234.527 239.194 C 234.889 238.802,234.890 238.745,234.528 238.948 C 234.268 239.094,233.942 239.030,233.804 238.807 C 233.477 238.278,232.800 238.282,232.800 238.813 M183.853 239.881 C 183.462 240.272,183.555 242.400,183.963 242.400 C 184.162 242.400,184.231 242.040,184.116 241.600 C 184.001 241.160,184.063 240.781,184.253 240.757 C 184.444 240.734,185.086 240.689,185.680 240.657 C 186.763 240.600,188.276 239.600,187.280 239.600 C 187.016 239.600,186.800 239.802,186.800 240.049 C 186.800 240.359,186.615 240.344,186.200 240.000 C 185.766 239.640,185.600 239.630,185.600 239.965 C 185.600 240.293,185.382 240.312,184.853 240.028 C 184.442 239.808,183.992 239.742,183.853 239.881 M146.583 244.372 C 146.709 244.577,147.260 244.664,147.807 244.565 C 148.353 244.465,148.800 244.568,148.800 244.792 C 148.800 245.016,149.002 245.200,149.249 245.200 C 149.559 245.200,149.544 245.015,149.200 244.600 C 148.669 243.960,146.195 243.745,146.583 244.372 M181.200 244.424 C 181.200 244.657,181.400 244.724,181.645 244.572 C 181.889 244.421,182.247 244.546,182.439 244.849 C 182.713 245.281,182.789 245.287,182.794 244.876 C 182.797 244.588,182.980 244.464,183.200 244.600 C 183.420 244.736,183.600 244.657,183.600 244.424 C 183.600 244.191,183.060 244.000,182.400 244.000 C 181.740 244.000,181.200 244.191,181.200 244.424 M224.678 247.856 C 224.358 248.175,224.719 248.800,225.224 248.800 C 225.431 248.800,225.600 248.530,225.600 248.200 C 225.600 247.581,225.128 247.405,224.678 247.856 M154.734 249.500 C 154.933 249.885,155.046 250.514,154.984 250.898 C 154.849 251.737,155.431 252.197,155.824 251.562 C 155.977 251.314,155.854 250.953,155.551 250.761 C 155.152 250.509,155.138 250.411,155.500 250.406 C 155.775 250.403,156.000 250.209,156.000 249.976 C 156.000 249.743,155.789 249.683,155.532 249.842 C 155.217 250.036,155.148 249.913,155.319 249.466 C 155.488 249.027,155.370 248.800,154.973 248.800 C 154.529 248.800,154.467 248.983,154.734 249.500 M174.584 249.227 C 174.188 249.866,174.631 250.108,175.623 249.793 C 176.313 249.574,176.385 249.436,175.953 249.162 C 175.220 248.698,174.901 248.713,174.584 249.227 M174.587 251.240 C 174.441 251.702,174.473 252.233,174.660 252.419 C 174.847 252.604,175.019 252.226,175.043 251.578 C 175.093 250.188,174.954 250.084,174.587 251.240 M109.273 252.297 C 109.393 253.330,110.800 254.201,110.800 253.242 C 110.800 253.013,110.569 252.914,110.286 253.022 C 109.983 253.138,109.747 252.896,109.712 252.433 C 109.670 251.864,109.840 251.705,110.327 251.860 C 110.902 252.044,110.913 252.013,110.400 251.644 C 109.438 250.952,109.138 251.125,109.273 252.297 M218.800 253.000 C 218.800 253.373,219.178 253.600,219.800 253.600 C 220.350 253.600,220.800 253.409,220.800 253.176 C 220.800 252.943,220.632 252.856,220.428 252.983 C 220.223 253.109,219.942 253.030,219.804 252.807 C 219.427 252.197,218.800 252.317,218.800 253.000 M215.765 253.748 C 215.649 254.049,215.613 255.264,215.684 256.448 L 215.813 258.600 216.007 255.899 C 216.201 253.181,216.152 252.739,215.765 253.748 M158.170 254.048 C 158.079 254.195,158.274 254.419,158.602 254.546 C 158.931 254.672,159.200 254.601,159.200 254.387 C 159.200 254.174,159.391 254.000,159.624 254.000 C 159.857 254.000,159.919 254.208,159.762 254.462 C 159.585 254.748,159.652 254.815,159.938 254.638 C 160.752 254.135,160.433 253.606,159.368 253.694 C 158.800 253.741,158.262 253.900,158.170 254.048 M170.177 253.962 C 170.307 254.173,170.230 254.458,170.007 254.596 C 169.503 254.907,169.463 258.000,169.963 258.000 C 170.162 258.000,170.229 257.632,170.111 257.182 C 169.975 256.663,170.172 256.150,170.649 255.781 C 171.383 255.211,171.383 255.204,170.645 255.463 C 170.103 255.653,169.944 255.569,170.079 255.164 C 170.182 254.854,170.668 254.579,171.160 254.553 C 172.194 254.499,173.178 253.733,172.213 253.733 C 171.876 253.733,171.597 253.928,171.594 254.167 C 171.590 254.448,171.484 254.459,171.294 254.200 C 170.913 253.682,169.866 253.459,170.177 253.962 M161.790 258.293 C 162.225 258.403,162.824 258.787,163.123 259.147 C 163.620 259.745,163.647 259.741,163.445 259.100 C 163.173 258.234,163.726 258.188,164.416 259.019 C 164.776 259.454,165.013 259.503,165.209 259.185 C 165.398 258.880,165.570 258.946,165.740 259.387 C 165.902 259.811,165.833 259.944,165.544 259.765 C 165.289 259.608,165.166 259.698,165.258 259.974 C 165.524 260.772,166.200 260.451,166.200 259.528 C 166.200 259.056,166.454 258.585,166.764 258.481 C 167.169 258.344,167.253 258.503,167.063 259.045 C 166.807 259.775,166.817 259.775,167.370 259.064 C 167.771 258.547,168.218 258.406,168.871 258.590 C 169.592 258.794,169.665 258.758,169.200 258.432 C 168.502 257.944,166.000 257.851,166.000 258.314 C 166.000 258.487,165.640 258.629,165.200 258.629 C 164.760 258.629,164.400 258.487,164.400 258.314 C 164.400 258.141,163.635 258.021,162.700 258.046 C 161.765 258.072,161.356 258.183,161.790 258.293 M114.800 262.024 C 114.800 262.257,114.620 262.336,114.400 262.200 C 114.180 262.064,114.000 262.143,114.000 262.376 C 114.000 262.609,114.270 262.800,114.600 262.800 C 114.930 262.800,115.200 262.530,115.200 262.200 C 115.200 261.870,115.110 261.600,115.000 261.600 C 114.890 261.600,114.800 261.791,114.800 262.024 M214.508 262.149 C 214.381 262.355,214.469 262.405,214.704 262.259 C 214.939 262.114,215.203 262.208,215.289 262.468 C 215.459 262.978,216.400 262.583,216.400 262.001 C 216.400 261.541,214.807 261.665,214.508 262.149 M210.989 265.483 C 210.475 266.675,210.383 267.600,210.779 267.600 C 211.386 267.600,211.785 266.662,211.254 266.485 C 210.878 266.359,210.874 266.192,211.240 265.751 C 211.501 265.438,211.621 265.087,211.506 264.973 C 211.392 264.859,211.160 265.088,210.989 265.483 M119.257 266.763 C 118.855 267.013,118.836 267.175,119.184 267.390 C 119.733 267.729,120.145 267.429,119.942 266.838 C 119.858 266.596,119.576 266.565,119.257 266.763 M121.173 267.217 C 120.921 267.373,121.184 267.500,121.757 267.500 C 122.331 267.500,122.800 267.373,122.800 267.217 C 122.800 267.061,122.537 266.933,122.216 266.933 C 121.894 266.933,121.425 267.061,121.173 267.217 M123.822 269.965 C 123.674 270.204,123.698 270.403,123.876 270.406 C 124.054 270.409,123.932 270.582,123.603 270.789 C 123.136 271.085,123.114 271.258,123.500 271.587 C 123.771 271.818,123.908 271.888,123.803 271.743 C 123.698 271.598,123.925 271.248,124.306 270.966 C 124.826 270.583,124.886 270.338,124.545 269.992 C 124.221 269.663,124.013 269.656,123.822 269.965 M201.039 275.537 C 200.731 276.035,201.477 276.923,201.955 276.628 C 202.200 276.476,202.400 276.203,202.400 276.019 C 202.400 275.563,201.271 275.162,201.039 275.537 M128.457 275.963 C 128.055 276.213,128.036 276.375,128.384 276.590 C 128.933 276.929,129.345 276.629,129.142 276.038 C 129.058 275.796,128.776 275.765,128.457 275.963 M131.700 276.676 C 132.232 276.815,132.411 277.309,132.446 278.729 C 132.472 279.758,132.577 280.275,132.680 279.879 C 132.838 279.271,132.971 279.238,133.533 279.672 C 134.027 280.053,134.005 279.958,133.451 279.308 C 133.040 278.825,132.801 278.175,132.920 277.864 C 133.186 277.171,132.463 276.383,131.620 276.446 C 131.144 276.482,131.162 276.535,131.700 276.676 M192.243 282.633 C 192.093 283.023,192.182 283.206,192.475 283.108 C 193.073 282.909,193.402 282.000,192.876 282.000 C 192.661 282.000,192.376 282.285,192.243 282.633 M137.200 285.400 C 137.200 285.730,137.391 286.000,137.624 286.000 C 137.857 286.000,137.945 285.835,137.821 285.634 C 137.697 285.433,137.821 285.177,138.098 285.066 C 138.401 284.944,138.322 284.851,137.900 284.832 C 137.515 284.814,137.200 285.070,137.200 285.400 M191.893 285.499 C 192.126 286.105,192.873 285.980,193.101 285.298 C 193.184 285.049,192.900 284.872,192.470 284.905 C 191.994 284.941,191.768 285.173,191.893 285.499 M186.593 289.865 C 186.246 290.211,186.062 290.596,186.185 290.718 C 186.308 290.841,186.677 290.595,187.005 290.171 C 187.576 289.434,187.590 289.433,187.337 290.155 C 187.151 290.685,187.233 290.856,187.611 290.730 C 188.401 290.466,188.527 289.734,187.828 289.466 C 187.496 289.339,186.939 289.518,186.593 289.865 M142.120 290.160 C 142.339 290.817,143.088 290.868,143.328 290.243 C 143.484 289.838,143.310 289.672,142.772 289.712 C 142.342 289.744,142.049 289.946,142.120 290.160 M146.400 293.976 C 146.400 294.403,146.608 294.881,146.862 295.038 C 147.131 295.205,147.216 295.149,147.064 294.904 C 146.921 294.673,147.074 294.381,147.402 294.254 C 147.731 294.128,148.000 293.817,148.000 293.564 C 148.000 293.249,147.784 293.277,147.323 293.651 C 146.863 294.024,146.743 294.040,146.947 293.700 C 147.112 293.425,147.057 293.200,146.824 293.200 C 146.591 293.200,146.400 293.549,146.400 293.976 M152.000 299.224 C 152.000 299.457,151.820 299.536,151.600 299.400 C 151.380 299.264,151.200 299.343,151.200 299.576 C 151.200 299.809,151.470 300.000,151.800 300.000 C 152.130 300.000,152.400 299.730,152.400 299.400 C 152.400 299.070,152.310 298.800,152.200 298.800 C 152.090 298.800,152.000 298.991,152.000 299.224 M176.954 299.483 C 176.565 299.767,176.451 300.000,176.700 300.000 C 176.949 300.000,177.276 299.801,177.426 299.557 C 177.621 299.242,177.788 299.257,178.005 299.609 C 178.321 300.120,179.200 299.820,179.200 299.201 C 179.200 298.697,177.787 298.874,176.954 299.483 " stroke="none" fill="#d0cccc" fill-rule="evenodd"></path></g></svg>