<svg id="svg" version="1.1" xmlns="http://www.w3.org/2000/svg" xmlns:xlink="http://www.w3.org/1999/xlink" width="400" height="400" viewBox="0, 0, 400,400"><g id="svgg"><path id="path0" d="M36.400 30.970 C 36.400 31.373,36.045 31.600,35.413 31.600 C 34.656 31.600,34.485 31.756,34.681 32.266 C 34.857 32.724,34.785 32.838,34.450 32.631 C 34.183 32.466,33.668 32.572,33.306 32.866 C 32.743 33.322,32.696 33.312,32.982 32.800 C 33.167 32.470,32.931 32.597,32.459 33.083 C 31.986 33.569,31.600 34.334,31.600 34.783 C 31.600 35.232,31.365 35.600,31.078 35.600 C 30.769 35.600,30.565 36.050,30.578 36.700 C 30.590 37.305,30.405 37.765,30.168 37.723 C 29.884 37.672,29.703 39.129,29.643 41.950 C 29.549 46.344,30.002 48.400,31.064 48.400 C 31.413 48.400,31.600 48.903,31.600 49.837 C 31.600 50.958,31.784 51.323,32.434 51.493 C 33.068 51.659,33.140 51.792,32.734 52.049 C 32.325 52.309,32.364 52.389,32.900 52.394 C 33.295 52.397,33.603 52.705,33.606 53.100 C 33.611 53.698,33.669 53.713,34.000 53.200 C 34.332 52.686,34.389 52.699,34.394 53.292 C 34.397 53.688,34.814 54.089,35.365 54.227 C 36.481 54.507,38.400 56.511,38.400 57.397 C 38.400 57.728,38.586 58.000,38.813 58.000 C 39.040 58.000,39.389 58.405,39.588 58.900 C 39.787 59.395,39.961 59.568,39.975 59.284 C 39.995 58.863,40.102 58.863,40.556 59.284 C 40.958 59.658,40.986 59.881,40.656 60.094 C 40.359 60.285,40.429 60.390,40.857 60.394 C 41.219 60.397,41.618 60.670,41.745 61.000 C 41.871 61.330,42.252 61.600,42.591 61.600 C 43.509 61.600,45.600 63.618,45.600 64.504 C 45.600 64.949,45.952 65.367,46.434 65.493 C 47.068 65.659,47.140 65.792,46.734 66.049 C 46.325 66.309,46.364 66.389,46.900 66.394 C 47.295 66.397,47.603 66.705,47.606 67.100 C 47.611 67.698,47.669 67.713,48.000 67.200 C 48.332 66.686,48.389 66.699,48.394 67.292 C 48.397 67.688,48.814 68.089,49.365 68.227 C 50.481 68.507,52.400 70.511,52.400 71.397 C 52.400 71.728,52.586 72.000,52.813 72.000 C 53.040 72.000,53.389 72.405,53.588 72.900 C 53.787 73.395,53.961 73.568,53.975 73.284 C 53.995 72.863,54.102 72.863,54.556 73.284 C 54.958 73.658,54.986 73.881,54.656 74.094 C 54.359 74.285,54.429 74.390,54.857 74.394 C 55.219 74.397,55.618 74.670,55.745 75.000 C 55.871 75.330,56.252 75.600,56.591 75.600 C 57.509 75.600,59.600 77.618,59.600 78.504 C 59.600 78.949,59.952 79.367,60.434 79.493 C 61.068 79.659,61.140 79.792,60.734 80.049 C 60.325 80.309,60.364 80.389,60.900 80.394 C 61.295 80.397,61.603 80.705,61.606 81.100 C 61.611 81.698,61.669 81.713,62.000 81.200 C 62.332 80.686,62.389 80.699,62.394 81.292 C 62.397 81.688,62.814 82.089,63.365 82.227 C 64.481 82.507,66.400 84.511,66.400 85.397 C 66.400 85.728,66.586 86.000,66.813 86.000 C 67.040 86.000,67.389 86.405,67.588 86.900 C 67.787 87.395,67.961 87.568,67.975 87.284 C 67.995 86.863,68.102 86.863,68.556 87.284 C 68.958 87.658,68.986 87.881,68.656 88.094 C 68.359 88.285,68.429 88.390,68.857 88.394 C 69.219 88.397,69.618 88.670,69.745 89.000 C 69.871 89.330,70.252 89.600,70.591 89.600 C 71.509 89.600,73.600 91.618,73.600 92.504 C 73.600 92.949,73.952 93.367,74.434 93.493 C 75.068 93.659,75.140 93.792,74.734 94.049 C 74.325 94.309,74.364 94.389,74.900 94.394 C 75.295 94.397,75.603 94.705,75.606 95.100 C 75.611 95.698,75.669 95.713,76.000 95.200 C 76.332 94.686,76.389 94.699,76.394 95.292 C 76.397 95.688,76.814 96.089,77.365 96.227 C 78.481 96.507,80.400 98.511,80.400 99.397 C 80.400 99.728,80.586 100.000,80.813 100.000 C 81.040 100.000,81.389 100.405,81.588 100.900 C 81.787 101.395,81.961 101.568,81.975 101.284 C 81.995 100.863,82.102 100.863,82.556 101.284 C 82.958 101.658,82.986 101.881,82.656 102.094 C 82.359 102.285,82.429 102.390,82.857 102.394 C 83.219 102.397,83.618 102.670,83.745 103.000 C 83.871 103.330,84.252 103.600,84.591 103.600 C 85.509 103.600,87.600 105.618,87.600 106.504 C 87.600 106.949,87.952 107.367,88.434 107.493 C 89.068 107.659,89.140 107.792,88.734 108.049 C 88.325 108.309,88.364 108.389,88.900 108.394 C 89.295 108.397,89.603 108.705,89.606 109.100 C 89.611 109.698,89.669 109.713,90.000 109.200 C 90.332 108.686,90.389 108.699,90.394 109.292 C 90.397 109.688,90.814 110.089,91.365 110.227 C 92.481 110.507,94.400 112.511,94.400 113.397 C 94.400 113.728,94.586 114.000,94.813 114.000 C 95.040 114.000,95.389 114.405,95.588 114.900 C 95.787 115.395,95.961 115.568,95.975 115.284 C 95.995 114.863,96.102 114.863,96.556 115.284 C 96.958 115.658,96.986 115.881,96.656 116.094 C 96.359 116.285,96.429 116.390,96.857 116.394 C 97.219 116.397,97.618 116.670,97.745 117.000 C 97.871 117.330,98.252 117.600,98.591 117.600 C 99.509 117.600,101.600 119.618,101.600 120.504 C 101.600 120.949,101.952 121.367,102.434 121.493 C 103.068 121.659,103.140 121.792,102.734 122.049 C 102.325 122.309,102.364 122.389,102.900 122.394 C 103.295 122.397,103.603 122.705,103.606 123.100 C 103.611 123.698,103.669 123.713,104.000 123.200 C 104.332 122.686,104.389 122.699,104.394 123.292 C 104.397 123.688,104.814 124.089,105.365 124.227 C 106.481 124.507,108.400 126.511,108.400 127.397 C 108.400 127.728,108.586 128.000,108.813 128.000 C 109.040 128.000,109.389 128.405,109.588 128.900 C 109.787 129.395,109.961 129.568,109.975 129.284 C 109.995 128.863,110.102 128.863,110.556 129.284 C 110.958 129.658,110.986 129.881,110.656 130.094 C 110.359 130.285,110.429 130.390,110.857 130.394 C 111.219 130.397,111.618 130.670,111.745 131.000 C 111.871 131.330,112.252 131.600,112.591 131.600 C 113.509 131.600,115.600 133.618,115.600 134.504 C 115.600 134.949,115.952 135.367,116.434 135.493 C 117.068 135.659,117.140 135.792,116.734 136.049 C 116.325 136.309,116.364 136.389,116.900 136.394 C 117.295 136.397,117.603 136.705,117.606 137.100 C 117.611 137.698,117.669 137.713,118.000 137.200 C 118.332 136.686,118.389 136.699,118.394 137.292 C 118.397 137.688,118.814 138.089,119.365 138.227 C 120.481 138.507,122.400 140.511,122.400 141.397 C 122.400 141.728,122.586 142.000,122.813 142.000 C 123.040 142.000,123.389 142.405,123.588 142.900 C 123.787 143.395,123.961 143.568,123.975 143.284 C 123.995 142.863,124.102 142.863,124.556 143.284 C 124.958 143.658,124.986 143.881,124.656 144.094 C 124.359 144.285,124.429 144.390,124.857 144.394 C 125.219 144.397,125.618 144.670,125.745 145.000 C 125.871 145.330,126.252 145.600,126.591 145.600 C 127.509 145.600,129.600 147.618,129.600 148.504 C 129.600 148.949,129.952 149.367,130.434 149.493 C 131.068 149.659,131.140 149.792,130.734 150.049 C 130.325 150.309,130.364 150.389,130.900 150.394 C 131.295 150.397,131.603 150.705,131.606 151.100 C 131.611 151.698,131.669 151.713,132.000 151.200 C 132.332 150.686,132.389 150.699,132.394 151.292 C 132.397 151.688,132.814 152.089,133.365 152.227 C 134.481 152.507,136.400 154.511,136.400 155.397 C 136.400 155.728,136.586 156.000,136.813 156.000 C 137.040 156.000,137.389 156.405,137.588 156.900 C 137.787 157.395,137.961 157.568,137.975 157.284 C 137.995 156.863,138.102 156.863,138.556 157.284 C 138.958 157.658,138.986 157.881,138.656 158.094 C 138.359 158.285,138.429 158.390,138.857 158.394 C 139.219 158.397,139.618 158.670,139.745 159.000 C 139.871 159.330,140.252 159.600,140.591 159.600 C 141.509 159.600,143.600 161.618,143.600 162.504 C 143.600 162.949,143.952 163.367,144.434 163.493 C 145.068 163.659,145.140 163.792,144.734 164.049 C 144.325 164.309,144.364 164.389,144.900 164.394 C 145.295 164.397,145.603 164.705,145.606 165.100 C 145.611 165.698,145.669 165.713,146.000 165.200 C 146.332 164.686,146.389 164.699,146.394 165.292 C 146.397 165.688,146.814 166.089,147.365 166.227 C 148.481 166.507,150.400 168.511,150.400 169.397 C 150.400 169.728,150.586 170.000,150.813 170.000 C 151.040 170.000,151.389 170.405,151.588 170.900 C 151.787 171.395,151.961 171.568,151.975 171.284 C 151.995 170.863,152.102 170.863,152.556 171.284 C 152.958 171.658,152.986 171.881,152.656 172.094 C 152.359 172.285,152.429 172.390,152.857 172.394 C 153.219 172.397,153.618 172.670,153.745 173.000 C 153.871 173.330,154.252 173.600,154.591 173.600 C 155.509 173.600,157.600 175.618,157.600 176.504 C 157.600 176.949,157.952 177.367,158.434 177.493 C 159.068 177.659,159.140 177.792,158.734 178.049 C 158.325 178.309,158.364 178.389,158.900 178.394 C 159.295 178.397,159.603 178.705,159.606 179.100 C 159.611 179.698,159.669 179.713,160.000 179.200 C 160.332 178.686,160.389 178.699,160.394 179.292 C 160.397 179.688,160.814 180.089,161.365 180.227 C 162.481 180.507,164.400 182.511,164.400 183.397 C 164.400 183.728,164.586 184.000,164.813 184.000 C 165.040 184.000,165.389 184.405,165.588 184.900 C 165.787 185.395,165.961 185.568,165.975 185.284 C 165.995 184.863,166.102 184.863,166.556 185.284 C 166.958 185.658,166.986 185.881,166.656 186.094 C 166.359 186.285,166.429 186.390,166.857 186.394 C 167.219 186.397,167.618 186.670,167.745 187.000 C 167.871 187.330,168.252 187.600,168.591 187.600 C 169.509 187.600,171.600 189.618,171.600 190.504 C 171.600 190.949,171.952 191.367,172.434 191.493 C 173.068 191.659,173.140 191.792,172.734 192.049 C 172.325 192.309,172.364 192.389,172.900 192.394 C 173.295 192.397,173.603 192.705,173.606 193.100 C 173.611 193.698,173.669 193.713,174.000 193.200 C 174.332 192.686,174.389 192.699,174.394 193.292 C 174.397 193.688,174.814 194.089,175.365 194.227 C 176.481 194.507,178.400 196.511,178.400 197.397 C 178.400 197.728,178.586 198.000,178.813 198.000 C 179.040 198.000,179.389 198.405,179.588 198.900 C 179.787 199.395,179.961 199.568,179.975 199.284 C 179.995 198.863,180.102 198.863,180.556 199.284 C 180.958 199.658,180.986 199.881,180.656 200.094 C 180.359 200.286,180.427 200.390,180.853 200.394 C 181.213 200.397,181.595 200.737,181.703 201.149 C 181.858 201.743,181.722 201.860,181.049 201.715 C 180.451 201.585,180.354 201.640,180.719 201.901 C 181.139 202.200,181.127 202.362,180.658 202.752 C 180.203 203.129,180.025 203.122,179.834 202.717 C 179.701 202.433,179.667 202.609,179.761 203.110 C 179.886 203.780,179.759 203.990,179.280 203.910 C 178.896 203.845,178.563 204.129,178.468 204.600 C 178.255 205.660,175.710 208.115,175.170 207.782 C 174.937 207.637,174.643 207.913,174.518 208.394 C 174.345 209.053,174.206 209.136,173.951 208.734 C 173.691 208.325,173.611 208.364,173.606 208.900 C 173.603 209.295,173.295 209.603,172.900 209.606 C 172.364 209.611,172.325 209.691,172.734 209.951 C 173.136 210.206,173.053 210.345,172.394 210.518 C 171.913 210.643,171.637 210.937,171.782 211.170 C 172.115 211.710,169.660 214.255,168.600 214.468 C 168.129 214.563,167.845 214.896,167.910 215.280 C 167.991 215.766,167.790 215.880,167.110 215.730 C 166.481 215.592,166.360 215.645,166.719 215.901 C 167.139 216.200,167.127 216.362,166.658 216.752 C 166.203 217.129,166.025 217.122,165.834 216.717 C 165.701 216.433,165.667 216.609,165.761 217.110 C 165.886 217.780,165.759 217.990,165.280 217.910 C 164.896 217.845,164.563 218.129,164.468 218.600 C 164.255 219.660,161.710 222.115,161.170 221.782 C 160.937 221.637,160.643 221.913,160.518 222.394 C 160.345 223.053,160.206 223.136,159.951 222.734 C 159.691 222.325,159.611 222.364,159.606 222.900 C 159.603 223.295,159.295 223.603,158.900 223.606 C 158.364 223.611,158.325 223.691,158.734 223.951 C 159.136 224.206,159.053 224.345,158.394 224.518 C 157.913 224.643,157.637 224.937,157.782 225.170 C 158.115 225.710,155.660 228.255,154.600 228.468 C 154.129 228.563,153.845 228.896,153.910 229.280 C 153.991 229.766,153.790 229.880,153.110 229.730 C 152.481 229.592,152.360 229.645,152.719 229.901 C 153.139 230.200,153.127 230.362,152.658 230.752 C 152.203 231.129,152.025 231.122,151.834 230.717 C 151.701 230.433,151.667 230.609,151.761 231.110 C 151.886 231.780,151.759 231.990,151.280 231.910 C 150.896 231.845,150.563 232.129,150.468 232.600 C 150.255 233.660,147.710 236.115,147.170 235.782 C 146.937 235.637,146.643 235.913,146.518 236.394 C 146.345 237.053,146.206 237.136,145.951 236.734 C 145.691 236.325,145.611 236.364,145.606 236.900 C 145.603 237.295,145.295 237.603,144.900 237.606 C 144.364 237.611,144.325 237.691,144.734 237.951 C 145.136 238.206,145.053 238.345,144.394 238.518 C 143.913 238.643,143.637 238.937,143.782 239.170 C 144.115 239.710,141.660 242.255,140.600 242.468 C 140.129 242.563,139.845 242.896,139.910 243.280 C 139.990 243.759,139.780 243.886,139.110 243.761 C 138.609 243.667,138.433 243.701,138.717 243.834 C 139.122 244.025,139.129 244.203,138.752 244.658 C 138.362 245.127,138.200 245.139,137.901 244.719 C 137.645 244.360,137.592 244.481,137.730 245.110 C 137.880 245.790,137.766 245.991,137.280 245.910 C 136.896 245.845,136.563 246.129,136.468 246.600 C 136.255 247.660,133.710 250.115,133.170 249.782 C 132.937 249.637,132.643 249.913,132.518 250.394 C 132.345 251.053,132.206 251.136,131.951 250.734 C 131.691 250.325,131.611 250.364,131.606 250.900 C 131.603 251.295,131.295 251.603,130.900 251.606 C 130.364 251.611,130.325 251.691,130.734 251.951 C 131.136 252.206,131.053 252.345,130.394 252.518 C 129.913 252.643,129.637 252.937,129.782 253.170 C 130.115 253.710,127.660 256.255,126.600 256.468 C 126.129 256.563,125.845 256.896,125.910 257.280 C 125.990 257.759,125.780 257.886,125.110 257.761 C 124.609 257.667,124.433 257.701,124.717 257.834 C 125.122 258.025,125.129 258.203,124.752 258.658 C 124.362 259.127,124.200 259.139,123.901 258.719 C 123.645 258.360,123.592 258.481,123.730 259.110 C 123.880 259.790,123.766 259.991,123.280 259.910 C 122.896 259.845,122.563 260.129,122.468 260.600 C 122.255 261.660,119.710 264.115,119.170 263.782 C 118.937 263.637,118.643 263.913,118.518 264.394 C 118.345 265.053,118.206 265.136,117.951 264.734 C 117.691 264.325,117.611 264.364,117.606 264.900 C 117.603 265.295,117.295 265.603,116.900 265.606 C 116.364 265.611,116.325 265.691,116.734 265.951 C 117.136 266.206,117.053 266.345,116.394 266.518 C 115.913 266.643,115.637 266.937,115.782 267.170 C 116.115 267.710,113.660 270.255,112.600 270.468 C 112.129 270.563,111.845 270.896,111.910 271.280 C 111.990 271.759,111.780 271.886,111.110 271.761 C 110.609 271.667,110.433 271.701,110.717 271.834 C 111.122 272.025,111.129 272.203,110.752 272.658 C 110.362 273.127,110.200 273.139,109.901 272.719 C 109.645 272.360,109.592 272.481,109.730 273.110 C 109.880 273.790,109.766 273.991,109.280 273.910 C 108.896 273.845,108.563 274.129,108.468 274.600 C 108.255 275.660,105.710 278.115,105.170 277.782 C 104.937 277.637,104.643 277.913,104.518 278.394 C 104.345 279.053,104.206 279.136,103.951 278.734 C 103.691 278.325,103.611 278.364,103.606 278.900 C 103.603 279.295,103.295 279.603,102.900 279.606 C 102.364 279.611,102.325 279.691,102.734 279.951 C 103.136 280.206,103.053 280.345,102.394 280.518 C 101.913 280.643,101.637 280.937,101.782 281.170 C 102.115 281.710,99.660 284.255,98.600 284.468 C 98.129 284.563,97.845 284.896,97.910 285.280 C 97.990 285.759,97.780 285.886,97.110 285.761 C 96.609 285.667,96.433 285.701,96.717 285.834 C 97.122 286.025,97.129 286.203,96.752 286.658 C 96.362 287.127,96.200 287.139,95.901 286.719 C 95.645 286.360,95.592 286.481,95.730 287.110 C 95.880 287.790,95.766 287.991,95.280 287.910 C 94.896 287.845,94.563 288.129,94.468 288.600 C 94.255 289.660,91.710 292.115,91.170 291.782 C 90.937 291.637,90.643 291.913,90.518 292.394 C 90.345 293.053,90.206 293.136,89.951 292.734 C 89.691 292.325,89.611 292.364,89.606 292.900 C 89.603 293.295,89.295 293.603,88.900 293.606 C 88.364 293.611,88.325 293.691,88.734 293.951 C 89.136 294.206,89.053 294.345,88.394 294.518 C 87.913 294.643,87.637 294.937,87.782 295.170 C 88.115 295.710,85.660 298.255,84.600 298.468 C 84.129 298.563,83.845 298.896,83.910 299.280 C 83.990 299.759,83.780 299.886,83.110 299.761 C 82.609 299.667,82.433 299.701,82.717 299.834 C 83.122 300.025,83.129 300.203,82.752 300.658 C 82.362 301.127,82.200 301.139,81.901 300.719 C 81.645 300.360,81.592 300.481,81.730 301.110 C 81.880 301.790,81.766 301.991,81.280 301.910 C 80.896 301.845,80.563 302.129,80.468 302.600 C 80.255 303.660,77.710 306.115,77.170 305.782 C 76.937 305.637,76.643 305.913,76.518 306.394 C 76.345 307.053,76.206 307.136,75.951 306.734 C 75.691 306.325,75.611 306.364,75.606 306.900 C 75.603 307.295,75.295 307.603,74.900 307.606 C 74.364 307.611,74.325 307.691,74.734 307.951 C 75.136 308.206,75.053 308.345,74.394 308.518 C 73.913 308.643,73.637 308.937,73.782 309.170 C 74.115 309.710,71.660 312.255,70.600 312.468 C 70.129 312.563,69.845 312.896,69.910 313.280 C 69.990 313.759,69.780 313.886,69.110 313.761 C 68.609 313.667,68.433 313.701,68.717 313.834 C 69.122 314.025,69.129 314.203,68.752 314.658 C 68.362 315.127,68.200 315.139,67.901 314.719 C 67.645 314.360,67.592 314.481,67.730 315.110 C 67.880 315.790,67.766 315.991,67.280 315.910 C 66.896 315.845,66.563 316.129,66.468 316.600 C 66.255 317.660,63.710 320.115,63.170 319.782 C 62.937 319.637,62.643 319.913,62.518 320.394 C 62.345 321.053,62.206 321.136,61.951 320.734 C 61.691 320.325,61.611 320.364,61.606 320.900 C 61.603 321.295,61.295 321.603,60.900 321.606 C 60.364 321.611,60.325 321.691,60.734 321.951 C 61.136 322.206,61.053 322.345,60.394 322.518 C 59.913 322.643,59.637 322.937,59.782 323.170 C 60.115 323.710,57.660 326.255,56.600 326.468 C 56.129 326.563,55.845 326.896,55.910 327.280 C 55.991 327.766,55.790 327.880,55.110 327.730 C 54.481 327.592,54.360 327.645,54.719 327.901 C 55.139 328.200,55.127 328.362,54.658 328.752 C 54.203 329.129,54.025 329.122,53.834 328.717 C 53.701 328.433,53.667 328.609,53.761 329.110 C 53.886 329.780,53.759 329.990,53.280 329.910 C 52.896 329.845,52.563 330.129,52.468 330.600 C 52.255 331.660,49.710 334.115,49.170 333.782 C 48.937 333.637,48.643 333.913,48.518 334.394 C 48.345 335.053,48.206 335.136,47.951 334.734 C 47.691 334.325,47.611 334.364,47.606 334.900 C 47.603 335.295,47.295 335.603,46.900 335.606 C 46.364 335.611,46.325 335.691,46.734 335.951 C 47.136 336.206,47.053 336.345,46.394 336.518 C 45.913 336.643,45.637 336.937,45.782 337.170 C 46.115 337.710,43.660 340.255,42.600 340.468 C 42.129 340.563,41.845 340.896,41.910 341.280 C 41.991 341.766,41.790 341.880,41.110 341.730 C 40.481 341.592,40.360 341.645,40.719 341.901 C 41.139 342.200,41.127 342.362,40.658 342.752 C 40.203 343.129,40.025 343.122,39.834 342.717 C 39.701 342.433,39.667 342.609,39.761 343.110 C 39.886 343.780,39.759 343.990,39.280 343.910 C 38.896 343.845,38.563 344.129,38.468 344.600 C 38.255 345.660,35.710 348.115,35.170 347.782 C 34.937 347.637,34.643 347.913,34.518 348.394 C 34.345 349.053,34.206 349.136,33.951 348.734 C 33.691 348.325,33.611 348.364,33.606 348.900 C 33.603 349.295,33.295 349.603,32.900 349.606 C 32.364 349.611,32.325 349.691,32.734 349.951 C 33.148 350.213,33.101 350.333,32.524 350.484 C 32.013 350.617,31.747 351.103,31.676 352.033 C 31.585 353.236,30.809 354.772,30.794 353.780 C 30.791 353.571,30.549 353.850,30.258 354.400 C 29.594 355.650,29.342 364.607,29.981 364.212 C 30.341 363.989,30.609 365.075,30.447 366.100 C 30.421 366.265,30.625 366.355,30.900 366.300 C 31.184 366.243,31.456 366.689,31.530 367.331 C 31.616 368.083,31.840 368.394,32.196 368.257 C 32.492 368.143,32.837 368.318,32.962 368.646 C 33.114 369.041,33.024 369.146,32.695 368.957 C 32.408 368.791,32.340 368.825,32.533 369.036 C 32.866 369.400,33.052 369.456,34.224 369.550 C 34.567 369.578,34.733 369.784,34.594 370.010 C 34.455 370.235,34.489 370.394,34.670 370.363 C 35.647 370.193,36.400 370.470,36.400 371.000 C 36.400 371.499,37.180 371.600,41.024 371.600 C 43.968 371.600,45.558 371.456,45.403 371.205 C 45.263 370.978,45.423 370.911,45.779 371.047 C 46.121 371.178,46.400 371.086,46.400 370.843 C 46.400 370.599,46.681 370.400,47.024 370.400 C 47.367 370.400,47.536 370.220,47.400 370.000 C 47.157 369.607,47.918 369.438,49.300 369.579 C 49.698 369.620,50.000 369.381,50.000 369.025 C 50.000 368.653,50.364 368.387,50.900 368.368 C 51.395 368.351,51.580 368.248,51.312 368.139 C 50.927 367.983,50.927 367.829,51.312 367.415 C 51.668 367.030,51.879 367.011,52.094 367.344 C 52.267 367.614,52.390 367.432,52.394 366.900 C 52.398 366.340,52.645 366.000,53.047 366.000 C 53.496 366.000,53.630 365.756,53.484 365.200 C 53.369 364.760,53.450 364.400,53.663 364.400 C 53.877 364.400,54.506 363.860,55.061 363.200 C 55.617 362.540,56.415 362.000,56.836 362.000 C 57.295 362.000,57.602 361.720,57.606 361.300 C 57.611 360.702,57.669 360.687,58.000 361.200 C 58.331 361.713,58.389 361.698,58.394 361.100 C 58.397 360.705,58.705 360.397,59.100 360.394 C 59.698 360.389,59.713 360.331,59.200 360.000 C 58.687 359.669,58.702 359.611,59.300 359.606 C 59.720 359.602,60.000 359.295,60.000 358.836 C 60.000 358.415,60.540 357.617,61.200 357.061 C 61.860 356.506,62.400 355.877,62.400 355.663 C 62.400 355.450,62.760 355.369,63.200 355.484 C 63.756 355.630,64.000 355.496,64.000 355.047 C 64.000 354.652,64.351 354.388,64.900 354.368 C 65.395 354.351,65.580 354.248,65.312 354.139 C 64.927 353.983,64.927 353.829,65.312 353.415 C 65.668 353.030,65.879 353.011,66.094 353.344 C 66.267 353.614,66.390 353.432,66.394 352.900 C 66.398 352.340,66.645 352.000,67.047 352.000 C 67.496 352.000,67.630 351.756,67.484 351.200 C 67.369 350.760,67.450 350.400,67.663 350.400 C 67.877 350.400,68.506 349.860,69.061 349.200 C 69.617 348.540,70.415 348.000,70.836 348.000 C 71.295 348.000,71.602 347.720,71.606 347.300 C 71.611 346.702,71.669 346.687,72.000 347.200 C 72.331 347.713,72.389 347.698,72.394 347.100 C 72.397 346.705,72.705 346.397,73.100 346.394 C 73.698 346.389,73.713 346.331,73.200 346.000 C 72.687 345.669,72.702 345.611,73.300 345.606 C 73.720 345.602,74.000 345.295,74.000 344.836 C 74.000 344.415,74.540 343.617,75.200 343.061 C 75.860 342.506,76.400 341.877,76.400 341.663 C 76.400 341.450,76.760 341.369,77.200 341.484 C 77.756 341.630,78.000 341.496,78.000 341.047 C 78.000 340.652,78.351 340.388,78.900 340.368 C 79.395 340.351,79.580 340.248,79.312 340.139 C 78.927 339.983,78.927 339.829,79.312 339.415 C 79.668 339.030,79.879 339.011,80.094 339.344 C 80.267 339.614,80.390 339.432,80.394 338.900 C 80.398 338.340,80.645 338.000,81.047 338.000 C 81.496 338.000,81.630 337.756,81.484 337.200 C 81.369 336.760,81.450 336.400,81.663 336.400 C 81.877 336.400,82.506 335.860,83.061 335.200 C 83.617 334.540,84.415 334.000,84.836 334.000 C 85.295 334.000,85.602 333.720,85.606 333.300 C 85.611 332.702,85.669 332.687,86.000 333.200 C 86.331 333.713,86.389 333.698,86.394 333.100 C 86.397 332.705,86.705 332.397,87.100 332.394 C 87.698 332.389,87.713 332.331,87.200 332.000 C 86.687 331.669,86.702 331.611,87.300 331.606 C 87.720 331.602,88.000 331.295,88.000 330.836 C 88.000 330.415,88.540 329.617,89.200 329.061 C 89.860 328.506,90.400 327.877,90.400 327.663 C 90.400 327.450,90.760 327.369,91.200 327.484 C 91.756 327.630,92.000 327.496,92.000 327.047 C 92.000 326.652,92.351 326.388,92.900 326.368 C 93.395 326.351,93.580 326.248,93.312 326.139 C 92.927 325.983,92.927 325.829,93.312 325.415 C 93.668 325.030,93.879 325.011,94.094 325.344 C 94.267 325.614,94.390 325.432,94.394 324.900 C 94.398 324.340,94.645 324.000,95.047 324.000 C 95.496 324.000,95.630 323.756,95.484 323.200 C 95.369 322.760,95.450 322.400,95.663 322.400 C 95.877 322.400,96.506 321.860,97.061 321.200 C 97.617 320.540,98.415 320.000,98.836 320.000 C 99.295 320.000,99.602 319.720,99.606 319.300 C 99.611 318.702,99.669 318.687,100.000 319.200 C 100.331 319.713,100.389 319.698,100.394 319.100 C 100.397 318.705,100.705 318.397,101.100 318.394 C 101.698 318.389,101.713 318.331,101.200 318.000 C 100.687 317.669,100.702 317.611,101.300 317.606 C 101.720 317.602,102.000 317.295,102.000 316.836 C 102.000 316.415,102.540 315.617,103.200 315.061 C 103.860 314.506,104.400 313.877,104.400 313.663 C 104.400 313.450,104.760 313.369,105.200 313.484 C 105.756 313.630,106.000 313.496,106.000 313.047 C 106.000 312.645,106.340 312.398,106.900 312.394 C 107.432 312.390,107.614 312.267,107.344 312.094 C 107.011 311.879,107.030 311.668,107.415 311.312 C 107.829 310.927,107.983 310.927,108.139 311.312 C 108.248 311.580,108.351 311.395,108.368 310.900 C 108.388 310.351,108.652 310.000,109.047 310.000 C 109.496 310.000,109.630 309.756,109.484 309.200 C 109.369 308.760,109.450 308.400,109.663 308.400 C 109.877 308.400,110.506 307.860,111.061 307.200 C 111.617 306.540,112.415 306.000,112.836 306.000 C 113.295 306.000,113.602 305.720,113.606 305.300 C 113.611 304.702,113.669 304.687,114.000 305.200 C 114.331 305.713,114.389 305.698,114.394 305.100 C 114.397 304.705,114.705 304.397,115.100 304.394 C 115.698 304.389,115.713 304.331,115.200 304.000 C 114.687 303.669,114.702 303.611,115.300 303.606 C 115.720 303.602,116.000 303.295,116.000 302.836 C 116.000 302.415,116.540 301.617,117.200 301.061 C 117.860 300.506,118.400 299.877,118.400 299.663 C 118.400 299.450,118.760 299.369,119.200 299.484 C 119.756 299.630,120.000 299.496,120.000 299.047 C 120.000 298.645,120.340 298.398,120.900 298.394 C 121.432 298.390,121.614 298.267,121.344 298.094 C 121.011 297.879,121.030 297.668,121.415 297.312 C 121.829 296.927,121.983 296.927,122.139 297.312 C 122.248 297.580,122.351 297.395,122.368 296.900 C 122.388 296.351,122.652 296.000,123.047 296.000 C 123.496 296.000,123.630 295.756,123.484 295.200 C 123.369 294.760,123.450 294.400,123.663 294.400 C 123.877 294.400,124.506 293.860,125.061 293.200 C 125.617 292.540,126.415 292.000,126.836 292.000 C 127.295 292.000,127.602 291.720,127.606 291.300 C 127.611 290.702,127.669 290.687,128.000 291.200 C 128.331 291.713,128.389 291.698,128.394 291.100 C 128.397 290.705,128.705 290.397,129.100 290.394 C 129.698 290.389,129.713 290.331,129.200 290.000 C 128.687 289.669,128.702 289.611,129.300 289.606 C 129.720 289.602,130.000 289.295,130.000 288.836 C 130.000 288.415,130.540 287.617,131.200 287.061 C 131.860 286.506,132.400 285.877,132.400 285.663 C 132.400 285.450,132.760 285.369,133.200 285.484 C 133.756 285.630,134.000 285.496,134.000 285.047 C 134.000 284.645,134.340 284.398,134.900 284.394 C 135.432 284.390,135.614 284.267,135.344 284.094 C 135.011 283.879,135.030 283.668,135.415 283.312 C 135.829 282.927,135.983 282.927,136.139 283.312 C 136.248 283.580,136.351 283.395,136.368 282.900 C 136.388 282.351,136.652 282.000,137.047 282.000 C 137.496 282.000,137.630 281.756,137.484 281.200 C 137.369 280.760,137.450 280.400,137.663 280.400 C 137.877 280.400,138.506 279.860,139.061 279.200 C 139.617 278.540,140.415 278.000,140.836 278.000 C 141.295 278.000,141.602 277.720,141.606 277.300 C 141.611 276.702,141.669 276.687,142.000 277.200 C 142.331 277.713,142.389 277.698,142.394 277.100 C 142.397 276.705,142.705 276.397,143.100 276.394 C 143.698 276.389,143.713 276.331,143.200 276.000 C 142.687 275.669,142.702 275.611,143.300 275.606 C 143.720 275.602,144.000 275.295,144.000 274.836 C 144.000 274.415,144.540 273.617,145.200 273.061 C 145.860 272.506,146.400 271.877,146.400 271.663 C 146.400 271.450,146.760 271.369,147.200 271.484 C 147.756 271.630,148.000 271.496,148.000 271.047 C 148.000 270.652,148.351 270.388,148.900 270.368 C 149.395 270.351,149.580 270.248,149.312 270.139 C 148.927 269.983,148.927 269.829,149.312 269.415 C 149.668 269.030,149.879 269.011,150.094 269.344 C 150.267 269.614,150.390 269.432,150.394 268.900 C 150.398 268.340,150.645 268.000,151.047 268.000 C 151.496 268.000,151.630 267.756,151.484 267.200 C 151.369 266.760,151.450 266.400,151.663 266.400 C 151.877 266.400,152.506 265.860,153.061 265.200 C 153.617 264.540,154.415 264.000,154.836 264.000 C 155.295 264.000,155.602 263.720,155.606 263.300 C 155.611 262.702,155.669 262.687,156.000 263.200 C 156.331 263.713,156.389 263.698,156.394 263.100 C 156.397 262.705,156.705 262.397,157.100 262.394 C 157.698 262.389,157.713 262.331,157.200 262.000 C 156.687 261.669,156.702 261.611,157.300 261.606 C 157.720 261.602,158.000 261.295,158.000 260.836 C 158.000 260.415,158.540 259.617,159.200 259.061 C 159.860 258.506,160.400 257.877,160.400 257.663 C 160.400 257.450,160.760 257.369,161.200 257.484 C 161.756 257.630,162.000 257.496,162.000 257.047 C 162.000 256.652,162.351 256.388,162.900 256.368 C 163.395 256.351,163.580 256.248,163.312 256.139 C 162.927 255.983,162.927 255.829,163.312 255.415 C 163.668 255.030,163.879 255.011,164.094 255.344 C 164.267 255.614,164.390 255.432,164.394 254.900 C 164.398 254.340,164.645 254.000,165.047 254.000 C 165.496 254.000,165.630 253.756,165.484 253.200 C 165.369 252.760,165.450 252.400,165.663 252.400 C 165.877 252.400,166.506 251.860,167.061 251.200 C 167.617 250.540,168.415 250.000,168.836 250.000 C 169.295 250.000,169.602 249.720,169.606 249.300 C 169.611 248.702,169.669 248.687,170.000 249.200 C 170.331 249.713,170.389 249.698,170.394 249.100 C 170.397 248.705,170.705 248.397,171.100 248.394 C 171.698 248.389,171.713 248.331,171.200 248.000 C 170.687 247.669,170.702 247.611,171.300 247.606 C 171.720 247.602,172.000 247.295,172.000 246.836 C 172.000 246.415,172.540 245.617,173.200 245.061 C 173.860 244.506,174.400 243.877,174.400 243.663 C 174.400 243.450,174.760 243.369,175.200 243.484 C 175.756 243.630,176.000 243.496,176.000 243.047 C 176.000 242.652,176.351 242.388,176.900 242.368 C 177.395 242.351,177.580 242.248,177.312 242.139 C 176.927 241.983,176.927 241.829,177.312 241.415 C 177.668 241.030,177.879 241.011,178.094 241.344 C 178.267 241.614,178.390 241.432,178.394 240.900 C 178.398 240.340,178.645 240.000,179.047 240.000 C 179.496 240.000,179.630 239.756,179.484 239.200 C 179.369 238.760,179.450 238.400,179.663 238.400 C 179.877 238.400,180.506 237.860,181.061 237.200 C 181.617 236.540,182.415 236.000,182.836 236.000 C 183.295 236.000,183.602 235.720,183.606 235.300 C 183.611 234.702,183.669 234.687,184.000 235.200 C 184.331 235.713,184.389 235.698,184.394 235.100 C 184.397 234.705,184.705 234.397,185.100 234.394 C 185.698 234.389,185.713 234.331,185.200 234.000 C 184.687 233.669,184.702 233.611,185.300 233.606 C 185.720 233.602,186.000 233.295,186.000 232.836 C 186.000 232.415,186.540 231.617,187.200 231.061 C 187.860 230.506,188.400 229.877,188.400 229.663 C 188.400 229.450,188.760 229.369,189.200 229.484 C 189.756 229.630,190.000 229.496,190.000 229.047 C 190.000 228.645,190.340 228.398,190.900 228.394 C 191.432 228.390,191.614 228.267,191.344 228.094 C 191.011 227.879,191.030 227.668,191.415 227.312 C 191.829 226.927,191.983 226.927,192.139 227.312 C 192.248 227.580,192.351 227.395,192.368 226.900 C 192.388 226.351,192.652 226.000,193.047 226.000 C 193.496 226.000,193.630 225.756,193.484 225.200 C 193.369 224.760,193.450 224.400,193.663 224.400 C 193.877 224.400,194.506 223.860,195.061 223.200 C 195.617 222.540,196.415 222.000,196.836 222.000 C 197.295 222.000,197.602 221.720,197.606 221.300 C 197.611 220.702,197.669 220.687,198.000 221.200 C 198.331 221.713,198.389 221.698,198.394 221.100 C 198.397 220.705,198.705 220.397,199.100 220.394 C 199.698 220.389,199.713 220.331,199.200 220.000 C 198.750 219.709,198.950 219.612,200.000 219.612 C 201.050 219.612,201.250 219.709,200.800 220.000 C 200.287 220.331,200.302 220.389,200.900 220.394 C 201.295 220.397,201.603 220.705,201.606 221.100 C 201.611 221.698,201.669 221.713,202.000 221.200 C 202.332 220.686,202.389 220.699,202.394 221.292 C 202.397 221.688,202.814 222.089,203.365 222.227 C 204.481 222.507,206.400 224.511,206.400 225.397 C 206.400 225.728,206.586 226.000,206.813 226.000 C 207.040 226.000,207.389 226.405,207.588 226.900 C 207.787 227.395,207.961 227.568,207.975 227.284 C 207.995 226.863,208.102 226.863,208.556 227.284 C 208.958 227.658,208.986 227.881,208.656 228.094 C 208.359 228.285,208.429 228.390,208.857 228.394 C 209.219 228.397,209.618 228.670,209.745 229.000 C 209.871 229.330,210.252 229.600,210.591 229.600 C 211.509 229.600,213.600 231.618,213.600 232.504 C 213.600 232.949,213.952 233.367,214.434 233.493 C 215.068 233.659,215.140 233.792,214.734 234.049 C 214.325 234.309,214.364 234.389,214.900 234.394 C 215.295 234.397,215.603 234.705,215.606 235.100 C 215.611 235.698,215.669 235.713,216.000 235.200 C 216.332 234.686,216.389 234.699,216.394 235.292 C 216.397 235.688,216.814 236.089,217.365 236.227 C 218.481 236.507,220.400 238.511,220.400 239.397 C 220.400 239.728,220.586 240.000,220.813 240.000 C 221.040 240.000,221.389 240.405,221.588 240.900 C 221.787 241.395,221.961 241.568,221.975 241.284 C 221.995 240.863,222.102 240.863,222.556 241.284 C 222.958 241.658,222.986 241.881,222.656 242.094 C 222.359 242.285,222.429 242.390,222.857 242.394 C 223.219 242.397,223.618 242.670,223.745 243.000 C 223.871 243.330,224.252 243.600,224.591 243.600 C 225.509 243.600,227.600 245.618,227.600 246.504 C 227.600 246.949,227.952 247.367,228.434 247.493 C 229.068 247.659,229.140 247.792,228.734 248.049 C 228.325 248.309,228.364 248.389,228.900 248.394 C 229.295 248.397,229.603 248.705,229.606 249.100 C 229.611 249.698,229.669 249.713,230.000 249.200 C 230.332 248.686,230.389 248.699,230.394 249.292 C 230.397 249.688,230.814 250.089,231.365 250.227 C 232.481 250.507,234.400 252.511,234.400 253.397 C 234.400 253.728,234.586 254.000,234.813 254.000 C 235.040 254.000,235.389 254.405,235.588 254.900 C 235.787 255.395,235.961 255.568,235.975 255.284 C 235.995 254.863,236.102 254.863,236.556 255.284 C 236.958 255.658,236.986 255.881,236.656 256.094 C 236.359 256.285,236.429 256.390,236.857 256.394 C 237.219 256.397,237.618 256.670,237.745 257.000 C 237.871 257.330,238.252 257.600,238.591 257.600 C 239.509 257.600,241.600 259.618,241.600 260.504 C 241.600 260.949,241.952 261.367,242.434 261.493 C 243.068 261.659,243.140 261.792,242.734 262.049 C 242.325 262.309,242.364 262.389,242.900 262.394 C 243.295 262.397,243.603 262.705,243.606 263.100 C 243.611 263.698,243.669 263.713,244.000 263.200 C 244.332 262.686,244.389 262.699,244.394 263.292 C 244.397 263.688,244.814 264.089,245.365 264.227 C 246.481 264.507,248.400 266.511,248.400 267.397 C 248.400 267.728,248.586 268.000,248.813 268.000 C 249.040 268.000,249.389 268.405,249.588 268.900 C 249.787 269.395,249.961 269.568,249.975 269.284 C 249.995 268.863,250.102 268.863,250.556 269.284 C 250.958 269.658,250.986 269.881,250.656 270.094 C 250.359 270.285,250.429 270.390,250.857 270.394 C 251.219 270.397,251.618 270.670,251.745 271.000 C 251.871 271.330,252.252 271.600,252.591 271.600 C 253.490 271.600,255.537 273.554,255.679 274.547 C 255.754 275.074,256.068 275.379,256.500 275.344 C 257.304 275.281,257.444 275.835,256.700 276.135 C 256.401 276.256,256.482 276.350,256.900 276.368 C 257.285 276.386,257.603 276.715,257.606 277.100 C 257.611 277.636,257.691 277.675,257.951 277.266 C 258.208 276.860,258.341 276.932,258.507 277.566 C 258.633 278.048,259.051 278.400,259.496 278.400 C 260.382 278.400,262.400 280.491,262.400 281.409 C 262.400 281.748,262.670 282.129,263.000 282.255 C 263.330 282.382,263.603 282.781,263.606 283.143 C 263.610 283.571,263.715 283.641,263.906 283.344 C 264.121 283.011,264.332 283.030,264.688 283.415 C 265.073 283.829,265.073 283.983,264.688 284.139 C 264.394 284.258,264.461 284.349,264.857 284.368 C 265.219 284.386,265.618 284.670,265.745 285.000 C 265.871 285.330,266.252 285.600,266.591 285.600 C 267.490 285.600,269.537 287.554,269.679 288.547 C 269.754 289.074,270.068 289.379,270.500 289.344 C 271.304 289.281,271.444 289.835,270.700 290.135 C 270.401 290.256,270.482 290.350,270.900 290.368 C 271.285 290.386,271.603 290.715,271.606 291.100 C 271.611 291.636,271.691 291.675,271.951 291.266 C 272.208 290.860,272.341 290.932,272.507 291.566 C 272.633 292.048,273.051 292.400,273.496 292.400 C 274.382 292.400,276.400 294.491,276.400 295.409 C 276.400 295.748,276.670 296.129,277.000 296.255 C 277.330 296.382,277.603 296.781,277.606 297.143 C 277.610 297.571,277.715 297.641,277.906 297.344 C 278.121 297.011,278.332 297.030,278.688 297.415 C 279.073 297.829,279.073 297.983,278.688 298.139 C 278.394 298.258,278.461 298.349,278.857 298.368 C 279.219 298.386,279.618 298.670,279.745 299.000 C 279.871 299.330,280.252 299.600,280.591 299.600 C 281.490 299.600,283.537 301.554,283.679 302.547 C 283.754 303.074,284.068 303.379,284.500 303.344 C 285.304 303.281,285.444 303.835,284.700 304.135 C 284.401 304.256,284.482 304.350,284.900 304.368 C 285.285 304.386,285.603 304.715,285.606 305.100 C 285.611 305.636,285.691 305.675,285.951 305.266 C 286.208 304.860,286.341 304.932,286.507 305.566 C 286.633 306.048,287.051 306.400,287.496 306.400 C 288.382 306.400,290.400 308.491,290.400 309.409 C 290.400 309.748,290.670 310.129,291.000 310.255 C 291.330 310.382,291.603 310.781,291.606 311.143 C 291.610 311.571,291.715 311.641,291.906 311.344 C 292.121 311.011,292.332 311.030,292.688 311.415 C 293.073 311.829,293.073 311.983,292.688 312.139 C 292.394 312.258,292.461 312.349,292.857 312.368 C 293.219 312.386,293.618 312.670,293.745 313.000 C 293.871 313.330,294.252 313.600,294.591 313.600 C 295.490 313.600,297.537 315.554,297.679 316.547 C 297.754 317.074,298.068 317.379,298.500 317.344 C 299.304 317.281,299.444 317.835,298.700 318.135 C 298.401 318.256,298.482 318.350,298.900 318.368 C 299.285 318.386,299.603 318.715,299.606 319.100 C 299.611 319.636,299.691 319.675,299.951 319.266 C 300.208 318.860,300.341 318.932,300.507 319.566 C 300.633 320.048,301.051 320.400,301.496 320.400 C 302.376 320.400,304.400 322.489,304.400 323.397 C 304.400 323.728,304.586 324.000,304.813 324.000 C 305.040 324.000,305.389 324.405,305.588 324.900 C 305.787 325.395,305.961 325.568,305.975 325.284 C 305.995 324.863,306.102 324.863,306.556 325.284 C 306.958 325.658,306.986 325.881,306.656 326.094 C 306.359 326.285,306.429 326.390,306.857 326.394 C 307.219 326.397,307.618 326.670,307.745 327.000 C 307.871 327.330,308.252 327.600,308.591 327.600 C 309.509 327.600,311.600 329.618,311.600 330.504 C 311.600 330.949,311.952 331.367,312.434 331.493 C 313.068 331.659,313.140 331.792,312.734 332.049 C 312.325 332.309,312.364 332.389,312.900 332.394 C 313.295 332.397,313.603 332.705,313.606 333.100 C 313.611 333.698,313.669 333.713,314.000 333.200 C 314.332 332.686,314.389 332.699,314.394 333.292 C 314.397 333.688,314.814 334.089,315.365 334.227 C 316.481 334.507,318.400 336.511,318.400 337.397 C 318.400 337.728,318.586 338.000,318.813 338.000 C 319.040 338.000,319.389 338.405,319.588 338.900 C 319.787 339.395,319.961 339.568,319.975 339.284 C 319.995 338.863,320.102 338.863,320.556 339.284 C 320.958 339.658,320.986 339.881,320.656 340.094 C 320.359 340.285,320.429 340.390,320.857 340.394 C 321.219 340.397,321.618 340.670,321.745 341.000 C 321.871 341.330,322.252 341.600,322.591 341.600 C 323.509 341.600,325.600 343.618,325.600 344.504 C 325.600 344.949,325.952 345.367,326.434 345.493 C 327.068 345.659,327.140 345.792,326.734 346.049 C 326.325 346.309,326.364 346.389,326.900 346.394 C 327.295 346.397,327.603 346.705,327.606 347.100 C 327.611 347.698,327.669 347.713,328.000 347.200 C 328.332 346.686,328.389 346.699,328.394 347.292 C 328.397 347.688,328.814 348.089,329.365 348.227 C 330.481 348.507,332.400 350.511,332.400 351.397 C 332.400 351.728,332.586 352.000,332.813 352.000 C 333.040 352.000,333.389 352.405,333.588 352.900 C 333.787 353.395,333.961 353.568,333.975 353.284 C 333.995 352.863,334.102 352.863,334.556 353.284 C 334.958 353.658,334.986 353.881,334.656 354.094 C 334.359 354.285,334.429 354.390,334.857 354.394 C 335.219 354.397,335.618 354.670,335.745 355.000 C 335.871 355.330,336.252 355.600,336.591 355.600 C 337.509 355.600,339.600 357.618,339.600 358.504 C 339.600 358.949,339.952 359.367,340.434 359.493 C 341.068 359.659,341.140 359.792,340.734 360.049 C 340.325 360.309,340.364 360.389,340.900 360.394 C 341.295 360.397,341.603 360.705,341.606 361.100 C 341.611 361.698,341.669 361.713,342.000 361.200 C 342.332 360.686,342.389 360.699,342.394 361.292 C 342.397 361.688,342.814 362.089,343.365 362.227 C 344.481 362.507,346.400 364.511,346.400 365.397 C 346.400 365.728,346.586 366.000,346.813 366.000 C 347.040 366.000,347.389 366.405,347.588 366.900 C 347.787 367.395,347.961 367.568,347.975 367.284 C 347.995 366.863,348.102 366.863,348.556 367.284 C 348.958 367.658,348.986 367.881,348.656 368.094 C 348.359 368.285,348.429 368.390,348.857 368.394 C 349.219 368.397,349.618 368.670,349.745 369.000 C 349.879 369.351,350.479 369.600,351.187 369.600 C 351.854 369.600,352.400 369.780,352.400 370.000 C 352.400 370.220,352.676 370.400,353.013 370.400 C 353.349 370.400,353.729 370.670,353.855 371.000 C 354.197 371.890,363.600 371.890,363.600 371.000 C 363.600 370.627,363.978 370.400,364.600 370.400 C 365.150 370.400,365.600 370.220,365.600 370.000 C 365.600 369.780,366.050 369.600,366.600 369.600 C 367.150 369.600,367.600 369.409,367.600 369.176 C 367.600 368.943,367.375 368.862,367.100 368.995 C 366.825 369.128,367.005 368.937,367.500 368.570 C 367.995 368.203,368.400 367.564,368.400 367.151 C 368.400 366.738,368.662 366.400,368.981 366.400 C 369.368 366.400,369.535 366.033,369.481 365.300 C 369.432 364.628,369.586 364.236,369.878 364.293 C 370.643 364.441,370.495 354.922,369.727 354.628 C 369.409 354.505,369.261 354.224,369.398 354.003 C 369.535 353.781,369.367 353.600,369.024 353.600 C 368.631 353.600,368.400 353.242,368.400 352.633 C 368.400 351.194,367.995 350.401,367.257 350.394 C 366.687 350.389,366.679 350.337,367.200 350.000 C 367.713 349.669,367.698 349.611,367.100 349.606 C 366.705 349.603,366.397 349.295,366.394 348.900 C 366.389 348.364,366.309 348.325,366.049 348.734 C 365.792 349.140,365.659 349.068,365.493 348.434 C 365.367 347.952,364.949 347.600,364.504 347.600 C 363.618 347.600,361.600 345.509,361.600 344.591 C 361.600 344.252,361.330 343.871,361.000 343.745 C 360.670 343.618,360.397 343.219,360.394 342.857 C 360.390 342.429,360.285 342.359,360.094 342.656 C 359.881 342.986,359.658 342.958,359.284 342.556 C 358.863 342.102,358.863 341.995,359.284 341.975 C 359.568 341.961,359.395 341.787,358.900 341.588 C 358.405 341.389,358.000 341.040,358.000 340.813 C 358.000 340.586,357.728 340.400,357.397 340.400 C 356.511 340.400,354.507 338.481,354.227 337.365 C 354.089 336.814,353.688 336.397,353.292 336.394 C 352.699 336.389,352.686 336.332,353.200 336.000 C 353.713 335.669,353.698 335.611,353.100 335.606 C 352.705 335.603,352.397 335.295,352.394 334.900 C 352.389 334.364,352.309 334.325,352.049 334.734 C 351.792 335.140,351.659 335.068,351.493 334.434 C 351.367 333.952,350.949 333.600,350.504 333.600 C 349.618 333.600,347.600 331.509,347.600 330.591 C 347.600 330.252,347.330 329.871,347.000 329.745 C 346.670 329.618,346.397 329.219,346.394 328.857 C 346.390 328.429,346.285 328.359,346.094 328.656 C 345.881 328.986,345.658 328.958,345.284 328.556 C 344.863 328.102,344.863 327.995,345.284 327.975 C 345.568 327.961,345.395 327.787,344.900 327.588 C 344.405 327.389,344.000 327.040,344.000 326.813 C 344.000 326.586,343.728 326.400,343.397 326.400 C 342.511 326.400,340.507 324.481,340.227 323.365 C 340.089 322.814,339.688 322.397,339.292 322.394 C 338.699 322.389,338.686 322.332,339.200 322.000 C 339.713 321.669,339.698 321.611,339.100 321.606 C 338.705 321.603,338.397 321.295,338.394 320.900 C 338.389 320.364,338.309 320.325,338.049 320.734 C 337.792 321.140,337.659 321.068,337.493 320.434 C 337.367 319.952,336.949 319.600,336.504 319.600 C 335.618 319.600,333.600 317.509,333.600 316.591 C 333.600 316.252,333.330 315.871,333.000 315.745 C 332.670 315.618,332.397 315.219,332.394 314.857 C 332.390 314.429,332.285 314.359,332.094 314.656 C 331.881 314.986,331.658 314.958,331.284 314.556 C 330.863 314.102,330.863 313.995,331.284 313.975 C 331.568 313.961,331.395 313.787,330.900 313.588 C 330.405 313.389,330.000 313.040,330.000 312.813 C 330.000 312.586,329.728 312.400,329.397 312.400 C 328.511 312.400,326.507 310.481,326.227 309.365 C 326.089 308.814,325.688 308.397,325.292 308.394 C 324.699 308.389,324.686 308.332,325.200 308.000 C 325.713 307.669,325.698 307.611,325.100 307.606 C 324.705 307.603,324.397 307.295,324.394 306.900 C 324.389 306.364,324.309 306.325,324.049 306.734 C 323.792 307.140,323.659 307.068,323.493 306.434 C 323.367 305.952,322.949 305.600,322.504 305.600 C 321.618 305.600,319.600 303.509,319.600 302.591 C 319.600 302.252,319.330 301.871,319.000 301.745 C 318.670 301.618,318.397 301.219,318.394 300.857 C 318.390 300.429,318.285 300.359,318.094 300.656 C 317.881 300.986,317.658 300.958,317.284 300.556 C 316.863 300.102,316.863 299.995,317.284 299.975 C 317.568 299.961,317.395 299.787,316.900 299.588 C 316.405 299.389,316.000 299.040,316.000 298.813 C 316.000 298.586,315.728 298.400,315.397 298.400 C 314.511 298.400,312.507 296.481,312.227 295.365 C 312.089 294.814,311.688 294.397,311.292 294.394 C 310.699 294.389,310.686 294.332,311.200 294.000 C 311.713 293.669,311.698 293.611,311.100 293.606 C 310.705 293.603,310.397 293.295,310.394 292.900 C 310.389 292.364,310.309 292.325,310.049 292.734 C 309.792 293.140,309.659 293.068,309.493 292.434 C 309.367 291.952,308.949 291.600,308.504 291.600 C 307.618 291.600,305.600 289.509,305.600 288.591 C 305.600 288.252,305.330 287.871,305.000 287.745 C 304.670 287.618,304.397 287.219,304.394 286.857 C 304.389 286.287,304.337 286.279,304.000 286.800 C 303.718 287.236,303.611 287.257,303.606 286.876 C 303.603 286.588,303.420 286.464,303.200 286.600 C 302.980 286.736,302.800 286.657,302.800 286.424 C 302.800 286.191,303.025 285.989,303.300 285.975 C 303.575 285.961,303.395 285.787,302.900 285.588 C 302.405 285.389,302.000 285.040,302.000 284.813 C 302.000 284.586,301.728 284.400,301.397 284.400 C 300.511 284.400,298.507 282.481,298.227 281.365 C 298.089 280.814,297.688 280.397,297.292 280.394 C 296.699 280.389,296.686 280.332,297.200 280.000 C 297.713 279.669,297.698 279.611,297.100 279.606 C 296.705 279.603,296.397 279.295,296.394 278.900 C 296.389 278.364,296.309 278.325,296.049 278.734 C 295.792 279.140,295.659 279.068,295.493 278.434 C 295.367 277.952,294.949 277.600,294.504 277.600 C 293.618 277.600,291.600 275.509,291.600 274.591 C 291.600 274.252,291.330 273.871,291.000 273.745 C 290.670 273.618,290.397 273.219,290.394 272.857 C 290.389 272.287,290.337 272.279,290.000 272.800 C 289.718 273.236,289.611 273.257,289.606 272.876 C 289.603 272.588,289.420 272.464,289.200 272.600 C 288.980 272.736,288.800 272.657,288.800 272.424 C 288.800 272.191,289.025 271.989,289.300 271.975 C 289.575 271.961,289.395 271.787,288.900 271.588 C 288.405 271.389,288.000 271.040,288.000 270.813 C 288.000 270.586,287.728 270.400,287.397 270.400 C 286.511 270.400,284.507 268.481,284.227 267.365 C 284.089 266.814,283.688 266.397,283.292 266.394 C 282.699 266.389,282.686 266.332,283.200 266.000 C 283.713 265.669,283.698 265.611,283.100 265.606 C 282.705 265.603,282.397 265.295,282.394 264.900 C 282.389 264.364,282.309 264.325,282.049 264.734 C 281.792 265.140,281.659 265.068,281.493 264.434 C 281.367 263.952,280.949 263.600,280.504 263.600 C 279.618 263.600,277.600 261.509,277.600 260.591 C 277.600 260.252,277.330 259.871,277.000 259.745 C 276.670 259.618,276.397 259.219,276.394 258.857 C 276.389 258.287,276.337 258.279,276.000 258.800 C 275.718 259.236,275.611 259.257,275.606 258.876 C 275.603 258.588,275.420 258.464,275.200 258.600 C 274.980 258.736,274.800 258.657,274.800 258.424 C 274.800 258.191,275.025 257.989,275.300 257.975 C 275.575 257.961,275.395 257.787,274.900 257.588 C 274.405 257.389,274.000 257.040,274.000 256.813 C 274.000 256.586,273.728 256.400,273.397 256.400 C 272.511 256.400,270.507 254.481,270.227 253.365 C 270.089 252.814,269.688 252.397,269.292 252.394 C 268.699 252.389,268.686 252.332,269.200 252.000 C 269.713 251.669,269.698 251.611,269.100 251.606 C 268.705 251.603,268.397 251.295,268.394 250.900 C 268.389 250.364,268.309 250.325,268.049 250.734 C 267.792 251.140,267.659 251.068,267.493 250.434 C 267.367 249.952,266.949 249.600,266.504 249.600 C 265.618 249.600,263.600 247.509,263.600 246.591 C 263.600 246.252,263.330 245.871,263.000 245.745 C 262.670 245.618,262.397 245.219,262.394 244.857 C 262.389 244.287,262.337 244.279,262.000 244.800 C 261.718 245.236,261.611 245.257,261.606 244.876 C 261.603 244.588,261.420 244.464,261.200 244.600 C 260.980 244.736,260.800 244.657,260.800 244.424 C 260.800 244.191,261.025 243.989,261.300 243.975 C 261.575 243.961,261.395 243.787,260.900 243.588 C 260.405 243.389,260.000 243.040,260.000 242.813 C 260.000 242.586,259.728 242.400,259.397 242.400 C 258.511 242.400,256.507 240.481,256.227 239.365 C 256.089 238.814,255.688 238.397,255.292 238.394 C 254.699 238.389,254.686 238.332,255.200 238.000 C 255.713 237.669,255.698 237.611,255.100 237.606 C 254.705 237.603,254.397 237.295,254.394 236.900 C 254.389 236.364,254.309 236.325,254.049 236.734 C 253.792 237.140,253.659 237.068,253.493 236.434 C 253.367 235.952,252.949 235.600,252.504 235.600 C 251.618 235.600,249.600 233.509,249.600 232.591 C 249.600 232.252,249.330 231.871,249.000 231.745 C 248.670 231.618,248.397 231.219,248.394 230.857 C 248.390 230.429,248.285 230.359,248.094 230.656 C 247.881 230.986,247.658 230.958,247.284 230.556 C 246.863 230.102,246.863 229.995,247.284 229.975 C 247.568 229.961,247.395 229.787,246.900 229.588 C 246.405 229.389,246.000 229.040,246.000 228.813 C 246.000 228.586,245.728 228.400,245.397 228.400 C 244.511 228.400,242.507 226.481,242.227 225.365 C 242.089 224.814,241.688 224.397,241.292 224.394 C 240.699 224.389,240.686 224.332,241.200 224.000 C 241.713 223.669,241.698 223.611,241.100 223.606 C 240.705 223.603,240.397 223.295,240.394 222.900 C 240.389 222.364,240.309 222.325,240.049 222.734 C 239.792 223.140,239.659 223.068,239.493 222.434 C 239.367 221.952,238.949 221.600,238.504 221.600 C 237.618 221.600,235.600 219.509,235.600 218.591 C 235.600 218.252,235.330 217.871,235.000 217.745 C 234.670 217.618,234.397 217.219,234.394 216.857 C 234.390 216.429,234.285 216.359,234.094 216.656 C 233.881 216.986,233.658 216.958,233.284 216.556 C 232.863 216.102,232.863 215.995,233.284 215.975 C 233.568 215.961,233.395 215.787,232.900 215.588 C 232.405 215.389,232.000 215.040,232.000 214.813 C 232.000 214.586,231.728 214.400,231.397 214.400 C 230.511 214.400,228.507 212.481,228.227 211.365 C 228.089 210.814,227.688 210.397,227.292 210.394 C 226.699 210.389,226.686 210.332,227.200 210.000 C 227.713 209.669,227.698 209.611,227.100 209.606 C 226.705 209.603,226.397 209.295,226.394 208.900 C 226.389 208.364,226.309 208.325,226.049 208.734 C 225.792 209.140,225.659 209.068,225.493 208.434 C 225.367 207.952,224.949 207.600,224.504 207.600 C 223.618 207.600,221.600 205.509,221.600 204.591 C 221.600 204.252,221.330 203.871,221.000 203.745 C 220.670 203.618,220.397 203.219,220.394 202.857 C 220.390 202.429,220.285 202.359,220.094 202.656 C 219.879 202.989,219.668 202.970,219.312 202.585 C 218.927 202.171,218.927 202.017,219.312 201.861 C 219.590 201.748,219.498 201.650,219.100 201.632 C 218.715 201.614,218.400 201.330,218.400 201.000 C 218.400 200.670,218.715 200.397,219.100 200.394 C 219.546 200.390,219.635 200.281,219.344 200.094 C 219.011 199.879,219.030 199.668,219.415 199.312 C 219.829 198.927,219.983 198.927,220.139 199.312 C 220.248 199.580,220.351 199.395,220.368 198.900 C 220.388 198.351,220.652 198.000,221.047 198.000 C 221.496 198.000,221.630 197.756,221.484 197.200 C 221.369 196.760,221.450 196.400,221.663 196.400 C 221.877 196.400,222.506 195.860,223.061 195.200 C 223.617 194.540,224.415 194.000,224.836 194.000 C 225.295 194.000,225.602 193.720,225.606 193.300 C 225.611 192.702,225.669 192.687,226.000 193.200 C 226.331 193.713,226.389 193.698,226.394 193.100 C 226.397 192.705,226.705 192.397,227.100 192.394 C 227.698 192.389,227.713 192.331,227.200 192.000 C 226.687 191.669,226.702 191.611,227.300 191.606 C 227.720 191.602,228.000 191.295,228.000 190.836 C 228.000 190.415,228.540 189.617,229.200 189.061 C 229.860 188.506,230.400 187.877,230.400 187.663 C 230.400 187.450,230.760 187.369,231.200 187.484 C 231.756 187.630,232.000 187.496,232.000 187.047 C 232.000 186.645,232.340 186.398,232.900 186.394 C 233.432 186.390,233.614 186.267,233.344 186.094 C 233.011 185.879,233.030 185.668,233.415 185.312 C 233.829 184.927,233.983 184.927,234.139 185.312 C 234.248 185.580,234.351 185.395,234.368 184.900 C 234.388 184.351,234.652 184.000,235.047 184.000 C 235.496 184.000,235.630 183.756,235.484 183.200 C 235.369 182.760,235.450 182.400,235.663 182.400 C 235.877 182.400,236.506 181.860,237.061 181.200 C 237.617 180.540,238.415 180.000,238.836 180.000 C 239.295 180.000,239.602 179.720,239.606 179.300 C 239.611 178.702,239.669 178.687,240.000 179.200 C 240.331 179.713,240.389 179.698,240.394 179.100 C 240.397 178.705,240.705 178.397,241.100 178.394 C 241.698 178.389,241.713 178.331,241.200 178.000 C 240.687 177.669,240.702 177.611,241.300 177.606 C 241.720 177.602,242.000 177.295,242.000 176.836 C 242.000 176.415,242.540 175.617,243.200 175.061 C 243.860 174.506,244.400 173.877,244.400 173.663 C 244.400 173.450,244.760 173.369,245.200 173.484 C 245.756 173.630,246.000 173.496,246.000 173.047 C 246.000 172.645,246.340 172.398,246.900 172.394 C 247.432 172.390,247.614 172.267,247.344 172.094 C 247.011 171.879,247.030 171.668,247.415 171.312 C 247.829 170.927,247.983 170.927,248.139 171.312 C 248.248 171.580,248.351 171.395,248.368 170.900 C 248.388 170.351,248.652 170.000,249.047 170.000 C 249.496 170.000,249.630 169.756,249.484 169.200 C 249.369 168.760,249.450 168.400,249.663 168.400 C 249.877 168.400,250.506 167.860,251.061 167.200 C 251.617 166.540,252.415 166.000,252.836 166.000 C 253.295 166.000,253.602 165.720,253.606 165.300 C 253.611 164.702,253.669 164.687,254.000 165.200 C 254.331 165.713,254.389 165.698,254.394 165.100 C 254.397 164.715,254.681 164.400,255.024 164.400 C 255.367 164.400,255.536 164.220,255.400 164.000 C 255.264 163.780,255.343 163.600,255.576 163.600 C 255.809 163.600,256.000 163.277,256.000 162.881 C 256.000 162.486,256.532 161.721,257.183 161.181 C 257.834 160.642,258.374 159.992,258.383 159.737 C 258.393 159.474,258.745 159.365,259.200 159.484 C 259.756 159.630,260.000 159.496,260.000 159.047 C 260.000 158.667,260.330 158.400,260.800 158.400 C 261.240 158.400,261.579 158.265,261.553 158.100 C 261.389 157.065,261.617 156.607,262.000 157.200 C 262.314 157.685,262.389 157.628,262.394 156.900 C 262.398 156.340,262.645 156.000,263.047 156.000 C 263.496 156.000,263.630 155.756,263.484 155.200 C 263.364 154.741,263.472 154.398,263.737 154.396 C 263.992 154.394,264.625 153.854,265.145 153.196 C 265.665 152.538,266.430 152.000,266.845 152.000 C 267.295 152.000,267.602 151.717,267.606 151.300 C 267.611 150.702,267.669 150.687,268.000 151.200 C 268.331 151.713,268.389 151.698,268.394 151.100 C 268.397 150.715,268.681 150.400,269.024 150.400 C 269.367 150.400,269.536 150.220,269.400 150.000 C 269.264 149.780,269.343 149.600,269.576 149.600 C 269.809 149.600,270.000 149.277,270.000 148.881 C 270.000 148.486,270.532 147.721,271.183 147.181 C 271.834 146.642,272.374 145.992,272.383 145.737 C 272.393 145.474,272.745 145.365,273.200 145.484 C 273.756 145.630,274.000 145.496,274.000 145.047 C 274.000 144.667,274.330 144.400,274.800 144.400 C 275.240 144.400,275.579 144.265,275.553 144.100 C 275.389 143.065,275.617 142.607,276.000 143.200 C 276.314 143.685,276.389 143.628,276.394 142.900 C 276.398 142.340,276.645 142.000,277.047 142.000 C 277.496 142.000,277.630 141.756,277.484 141.200 C 277.364 140.741,277.472 140.398,277.737 140.396 C 277.992 140.394,278.625 139.854,279.145 139.196 C 279.665 138.538,280.430 138.000,280.845 138.000 C 281.295 138.000,281.602 137.717,281.606 137.300 C 281.611 136.702,281.669 136.687,282.000 137.200 C 282.331 137.713,282.389 137.698,282.394 137.100 C 282.397 136.715,282.681 136.400,283.024 136.400 C 283.367 136.400,283.536 136.220,283.400 136.000 C 283.264 135.780,283.343 135.600,283.576 135.600 C 283.809 135.600,284.000 135.277,284.000 134.881 C 284.000 134.486,284.532 133.721,285.183 133.181 C 285.834 132.642,286.374 131.992,286.383 131.737 C 286.393 131.474,286.745 131.365,287.200 131.484 C 287.756 131.630,288.000 131.496,288.000 131.047 C 288.000 130.667,288.330 130.400,288.800 130.400 C 289.240 130.400,289.579 130.265,289.553 130.100 C 289.389 129.065,289.617 128.607,290.000 129.200 C 290.314 129.685,290.389 129.628,290.394 128.900 C 290.398 128.340,290.645 128.000,291.047 128.000 C 291.496 128.000,291.630 127.756,291.484 127.200 C 291.364 126.741,291.472 126.398,291.737 126.396 C 291.992 126.394,292.625 125.854,293.145 125.196 C 293.665 124.538,294.430 124.000,294.845 124.000 C 295.295 124.000,295.602 123.717,295.606 123.300 C 295.611 122.702,295.669 122.687,296.000 123.200 C 296.331 123.713,296.389 123.698,296.394 123.100 C 296.397 122.715,296.681 122.400,297.024 122.400 C 297.367 122.400,297.536 122.220,297.400 122.000 C 297.264 121.780,297.343 121.600,297.576 121.600 C 297.809 121.600,298.000 121.277,298.000 120.881 C 298.000 120.486,298.532 119.721,299.183 119.181 C 299.834 118.642,300.374 117.992,300.383 117.737 C 300.393 117.474,300.745 117.365,301.200 117.484 C 301.756 117.630,302.000 117.496,302.000 117.047 C 302.000 116.667,302.330 116.400,302.800 116.400 C 303.240 116.400,303.579 116.265,303.553 116.100 C 303.389 115.065,303.617 114.607,304.000 115.200 C 304.314 115.685,304.389 115.628,304.394 114.900 C 304.398 114.340,304.645 114.000,305.047 114.000 C 305.496 114.000,305.630 113.756,305.484 113.200 C 305.369 112.760,305.450 112.400,305.663 112.400 C 305.877 112.400,306.506 111.860,307.061 111.200 C 307.617 110.540,308.415 110.000,308.836 110.000 C 309.295 110.000,309.602 109.720,309.606 109.300 C 309.611 108.702,309.669 108.687,310.000 109.200 C 310.331 109.713,310.389 109.698,310.394 109.100 C 310.397 108.705,310.705 108.397,311.100 108.394 C 311.698 108.389,311.713 108.331,311.200 108.000 C 310.687 107.669,310.702 107.611,311.300 107.606 C 311.720 107.602,312.000 107.295,312.000 106.836 C 312.000 106.415,312.540 105.617,313.200 105.061 C 313.860 104.506,314.400 103.877,314.400 103.663 C 314.400 103.450,314.760 103.369,315.200 103.484 C 315.756 103.630,316.000 103.496,316.000 103.047 C 316.000 102.652,316.351 102.388,316.900 102.368 C 317.395 102.351,317.580 102.248,317.312 102.139 C 316.927 101.983,316.927 101.829,317.312 101.415 C 317.668 101.030,317.879 101.011,318.094 101.344 C 318.267 101.614,318.390 101.432,318.394 100.900 C 318.398 100.340,318.645 100.000,319.047 100.000 C 319.496 100.000,319.630 99.756,319.484 99.200 C 319.369 98.760,319.450 98.400,319.663 98.400 C 319.877 98.400,320.506 97.860,321.061 97.200 C 321.617 96.540,322.415 96.000,322.836 96.000 C 323.295 96.000,323.602 95.720,323.606 95.300 C 323.611 94.702,323.669 94.687,324.000 95.200 C 324.331 95.713,324.389 95.698,324.394 95.100 C 324.397 94.705,324.705 94.397,325.100 94.394 C 325.698 94.389,325.713 94.331,325.200 94.000 C 324.687 93.669,324.702 93.611,325.300 93.606 C 325.720 93.602,326.000 93.295,326.000 92.836 C 326.000 92.415,326.540 91.617,327.200 91.061 C 327.860 90.506,328.400 89.877,328.400 89.663 C 328.400 89.450,328.760 89.369,329.200 89.484 C 329.756 89.630,330.000 89.496,330.000 89.047 C 330.000 88.645,330.340 88.398,330.900 88.394 C 331.432 88.390,331.614 88.267,331.344 88.094 C 331.011 87.879,331.030 87.668,331.415 87.312 C 331.829 86.927,331.983 86.927,332.139 87.312 C 332.248 87.580,332.351 87.395,332.368 86.900 C 332.388 86.351,332.652 86.000,333.047 86.000 C 333.496 86.000,333.630 85.756,333.484 85.200 C 333.369 84.760,333.450 84.400,333.663 84.400 C 333.877 84.400,334.506 83.860,335.061 83.200 C 335.617 82.540,336.415 82.000,336.836 82.000 C 337.295 82.000,337.602 81.720,337.606 81.300 C 337.611 80.702,337.669 80.687,338.000 81.200 C 338.331 81.713,338.389 81.698,338.394 81.100 C 338.397 80.705,338.705 80.397,339.100 80.394 C 339.698 80.389,339.713 80.331,339.200 80.000 C 338.687 79.669,338.702 79.611,339.300 79.606 C 339.720 79.602,340.000 79.295,340.000 78.836 C 340.000 78.415,340.540 77.617,341.200 77.061 C 341.860 76.506,342.400 75.877,342.400 75.663 C 342.400 75.450,342.760 75.369,343.200 75.484 C 343.756 75.630,344.000 75.496,344.000 75.047 C 344.000 74.645,344.340 74.398,344.900 74.394 C 345.432 74.390,345.614 74.267,345.344 74.094 C 345.011 73.879,345.030 73.668,345.415 73.312 C 345.829 72.927,345.983 72.927,346.139 73.312 C 346.248 73.580,346.351 73.395,346.368 72.900 C 346.388 72.351,346.652 72.000,347.047 72.000 C 347.496 72.000,347.630 71.756,347.484 71.200 C 347.369 70.760,347.450 70.400,347.663 70.400 C 347.877 70.400,348.506 69.860,349.061 69.200 C 349.617 68.540,350.415 68.000,350.836 68.000 C 351.295 68.000,351.602 67.720,351.606 67.300 C 351.611 66.702,351.669 66.687,352.000 67.200 C 352.331 67.713,352.389 67.698,352.394 67.100 C 352.397 66.705,352.705 66.397,353.100 66.394 C 353.698 66.389,353.713 66.331,353.200 66.000 C 352.687 65.669,352.702 65.611,353.300 65.606 C 353.720 65.602,354.000 65.295,354.000 64.836 C 354.000 64.415,354.540 63.617,355.200 63.061 C 355.860 62.506,356.400 61.877,356.400 61.663 C 356.400 61.450,356.760 61.369,357.200 61.484 C 357.756 61.630,358.000 61.496,358.000 61.047 C 358.000 60.645,358.340 60.398,358.900 60.394 C 359.432 60.390,359.614 60.267,359.344 60.094 C 359.011 59.879,359.030 59.668,359.415 59.312 C 359.829 58.927,359.983 58.927,360.139 59.312 C 360.248 59.580,360.351 59.395,360.368 58.900 C 360.388 58.351,360.652 58.000,361.047 58.000 C 361.496 58.000,361.630 57.756,361.484 57.200 C 361.369 56.760,361.450 56.400,361.663 56.400 C 361.877 56.400,362.506 55.860,363.061 55.200 C 363.617 54.540,364.415 54.000,364.836 54.000 C 365.295 54.000,365.602 53.720,365.606 53.300 C 365.611 52.702,365.669 52.687,366.000 53.200 C 366.331 53.713,366.389 53.698,366.394 53.100 C 366.397 52.705,366.705 52.397,367.100 52.394 C 367.698 52.389,367.713 52.331,367.200 52.000 C 366.681 51.664,366.689 51.611,367.265 51.606 C 367.727 51.602,368.012 51.112,368.200 50.000 C 368.372 48.981,368.684 48.400,369.059 48.400 C 369.382 48.400,369.535 48.219,369.398 47.997 C 369.261 47.776,369.440 47.483,369.795 47.347 C 370.684 47.005,370.626 38.169,369.729 37.272 C 369.413 36.956,369.249 36.450,369.364 36.148 C 369.484 35.837,369.321 35.600,368.987 35.600 C 368.664 35.600,368.400 35.242,368.400 34.805 C 368.400 33.667,367.182 32.400,366.087 32.400 C 365.566 32.400,365.262 32.223,365.400 32.000 C 365.540 31.773,365.204 31.600,364.624 31.600 C 363.980 31.600,363.600 31.377,363.600 31.000 C 363.600 30.206,355.667 30.115,354.821 30.900 C 354.383 31.306,354.343 31.288,354.606 30.800 C 354.784 30.470,354.482 30.607,353.935 31.104 C 353.388 31.601,352.819 31.886,352.670 31.737 C 352.522 31.588,352.400 31.665,352.400 31.908 C 352.400 32.151,351.815 32.406,351.100 32.475 C 350.149 32.566,349.829 32.778,349.910 33.265 C 349.991 33.760,349.786 33.887,349.110 33.761 C 348.609 33.667,348.433 33.701,348.717 33.834 C 349.122 34.025,349.129 34.203,348.752 34.658 C 348.362 35.127,348.200 35.139,347.901 34.719 C 347.645 34.360,347.592 34.481,347.730 35.110 C 347.880 35.790,347.766 35.991,347.280 35.910 C 346.896 35.845,346.563 36.129,346.468 36.600 C 346.255 37.660,343.710 40.115,343.170 39.782 C 342.937 39.637,342.643 39.913,342.518 40.394 C 342.345 41.053,342.206 41.136,341.951 40.734 C 341.691 40.325,341.611 40.364,341.606 40.900 C 341.603 41.295,341.295 41.603,340.900 41.606 C 340.364 41.611,340.325 41.691,340.734 41.951 C 341.136 42.206,341.053 42.345,340.394 42.518 C 339.913 42.643,339.637 42.937,339.782 43.170 C 340.115 43.710,337.660 46.255,336.600 46.468 C 336.129 46.563,335.845 46.896,335.910 47.280 C 335.990 47.759,335.780 47.886,335.110 47.761 C 334.609 47.667,334.433 47.701,334.717 47.834 C 335.122 48.025,335.129 48.203,334.752 48.658 C 334.362 49.127,334.200 49.139,333.901 48.719 C 333.645 48.360,333.592 48.481,333.730 49.110 C 333.880 49.790,333.766 49.991,333.280 49.910 C 332.896 49.845,332.563 50.129,332.468 50.600 C 332.255 51.660,329.710 54.115,329.170 53.782 C 328.937 53.637,328.643 53.913,328.518 54.394 C 328.345 55.053,328.206 55.136,327.951 54.734 C 327.691 54.325,327.611 54.364,327.606 54.900 C 327.603 55.295,327.295 55.603,326.900 55.606 C 326.364 55.611,326.325 55.691,326.734 55.951 C 327.136 56.206,327.053 56.345,326.394 56.518 C 325.913 56.643,325.637 56.937,325.782 57.170 C 326.115 57.710,323.660 60.255,322.600 60.468 C 322.129 60.563,321.845 60.896,321.910 61.280 C 321.991 61.766,321.790 61.880,321.110 61.730 C 320.481 61.592,320.360 61.645,320.719 61.901 C 321.139 62.200,321.127 62.362,320.658 62.752 C 320.203 63.129,320.025 63.122,319.834 62.717 C 319.701 62.433,319.667 62.609,319.761 63.110 C 319.886 63.780,319.759 63.990,319.280 63.910 C 318.896 63.845,318.563 64.129,318.468 64.600 C 318.255 65.660,315.710 68.115,315.170 67.782 C 314.937 67.637,314.643 67.913,314.518 68.394 C 314.345 69.053,314.206 69.136,313.951 68.734 C 313.691 68.325,313.611 68.364,313.606 68.900 C 313.603 69.295,313.295 69.603,312.900 69.606 C 312.364 69.611,312.325 69.691,312.734 69.951 C 313.136 70.206,313.053 70.345,312.394 70.518 C 311.913 70.643,311.637 70.937,311.782 71.170 C 312.115 71.710,309.660 74.255,308.600 74.468 C 308.129 74.563,307.845 74.896,307.910 75.280 C 307.991 75.766,307.790 75.880,307.110 75.730 C 306.481 75.592,306.360 75.645,306.719 75.901 C 307.139 76.200,307.127 76.362,306.658 76.752 C 306.203 77.129,306.025 77.122,305.834 76.717 C 305.701 76.433,305.667 76.609,305.761 77.110 C 305.886 77.780,305.759 77.990,305.280 77.910 C 304.896 77.845,304.563 78.129,304.468 78.600 C 304.265 79.612,301.843 82.000,301.020 82.000 C 300.679 82.000,300.397 82.315,300.394 82.700 C 300.389 83.298,300.331 83.313,300.000 82.800 C 299.669 82.287,299.611 82.302,299.606 82.900 C 299.603 83.285,299.308 83.600,298.951 83.600 C 298.441 83.600,298.401 83.720,298.765 84.158 C 299.131 84.598,299.088 84.704,298.561 84.658 C 298.183 84.625,297.841 84.936,297.771 85.376 C 297.621 86.323,295.619 88.257,294.567 88.472 C 294.125 88.563,293.846 88.905,293.910 89.280 C 293.992 89.768,293.802 89.873,293.147 89.702 C 292.548 89.545,292.365 89.619,292.561 89.937 C 292.999 90.646,292.388 91.409,291.915 90.743 C 291.636 90.349,291.585 90.447,291.728 91.100 C 291.879 91.788,291.745 92.000,291.163 92.000 C 290.721 92.000,290.400 92.277,290.400 92.660 C 290.400 93.485,287.855 96.000,287.020 96.000 C 286.679 96.000,286.397 96.315,286.394 96.700 C 286.389 97.298,286.331 97.313,286.000 96.800 C 285.669 96.287,285.611 96.302,285.606 96.900 C 285.603 97.285,285.308 97.600,284.951 97.600 C 284.441 97.600,284.401 97.720,284.765 98.158 C 285.131 98.598,285.088 98.704,284.561 98.658 C 284.183 98.625,283.841 98.936,283.771 99.376 C 283.621 100.323,281.619 102.257,280.567 102.472 C 280.125 102.563,279.846 102.905,279.910 103.280 C 279.992 103.768,279.802 103.873,279.147 103.702 C 278.548 103.545,278.365 103.619,278.561 103.937 C 278.999 104.646,278.388 105.409,277.915 104.743 C 277.636 104.349,277.585 104.447,277.728 105.100 C 277.879 105.788,277.745 106.000,277.163 106.000 C 276.721 106.000,276.400 106.277,276.400 106.660 C 276.400 107.485,273.855 110.000,273.020 110.000 C 272.679 110.000,272.397 110.315,272.394 110.700 C 272.389 111.298,272.331 111.313,272.000 110.800 C 271.669 110.287,271.611 110.302,271.606 110.900 C 271.603 111.285,271.308 111.600,270.951 111.600 C 270.441 111.600,270.401 111.720,270.765 112.158 C 271.131 112.598,271.088 112.704,270.561 112.658 C 270.183 112.625,269.841 112.936,269.771 113.376 C 269.621 114.323,267.619 116.257,266.567 116.472 C 266.125 116.563,265.846 116.905,265.910 117.280 C 265.992 117.768,265.802 117.873,265.147 117.702 C 264.548 117.545,264.365 117.619,264.561 117.937 C 264.999 118.646,264.388 119.409,263.915 118.743 C 263.636 118.349,263.585 118.447,263.728 119.100 C 263.879 119.788,263.745 120.000,263.163 120.000 C 262.721 120.000,262.400 120.277,262.400 120.660 C 262.400 121.485,259.855 124.000,259.020 124.000 C 258.679 124.000,258.397 124.315,258.394 124.700 C 258.389 125.298,258.331 125.313,258.000 124.800 C 257.669 124.287,257.611 124.302,257.606 124.900 C 257.603 125.285,257.308 125.600,256.951 125.600 C 256.441 125.600,256.401 125.720,256.765 126.158 C 257.131 126.598,257.088 126.704,256.561 126.658 C 256.183 126.625,255.841 126.936,255.771 127.376 C 255.621 128.323,253.619 130.257,252.567 130.472 C 252.125 130.563,251.846 130.905,251.910 131.280 C 251.991 131.766,251.790 131.880,251.110 131.730 C 250.481 131.592,250.360 131.645,250.719 131.901 C 251.139 132.200,251.127 132.362,250.658 132.752 C 250.203 133.129,250.025 133.122,249.834 132.717 C 249.701 132.433,249.667 132.609,249.761 133.110 C 249.886 133.780,249.759 133.990,249.280 133.910 C 248.896 133.845,248.563 134.129,248.468 134.600 C 248.255 135.660,245.710 138.115,245.170 137.782 C 244.937 137.637,244.643 137.913,244.518 138.394 C 244.345 139.053,244.206 139.136,243.951 138.734 C 243.691 138.325,243.611 138.364,243.606 138.900 C 243.603 139.295,243.295 139.603,242.900 139.606 C 242.364 139.611,242.325 139.691,242.734 139.951 C 243.136 140.206,243.053 140.345,242.394 140.518 C 241.913 140.643,241.637 140.937,241.782 141.170 C 242.115 141.710,239.660 144.255,238.600 144.468 C 238.129 144.563,237.845 144.896,237.910 145.280 C 237.990 145.759,237.780 145.886,237.110 145.761 C 236.609 145.667,236.433 145.701,236.717 145.834 C 237.122 146.025,237.129 146.203,236.752 146.658 C 236.362 147.127,236.200 147.139,235.901 146.719 C 235.645 146.360,235.592 146.481,235.730 147.110 C 235.880 147.790,235.766 147.991,235.280 147.910 C 234.896 147.845,234.563 148.129,234.468 148.600 C 234.255 149.660,231.710 152.115,231.170 151.782 C 230.937 151.637,230.643 151.913,230.518 152.394 C 230.345 153.053,230.206 153.136,229.951 152.734 C 229.691 152.325,229.611 152.364,229.606 152.900 C 229.603 153.295,229.295 153.603,228.900 153.606 C 228.364 153.611,228.325 153.691,228.734 153.951 C 229.136 154.206,229.053 154.345,228.394 154.518 C 227.913 154.643,227.637 154.937,227.782 155.170 C 228.115 155.710,225.660 158.255,224.600 158.468 C 224.129 158.563,223.845 158.896,223.910 159.280 C 223.990 159.759,223.780 159.886,223.110 159.761 C 222.609 159.667,222.433 159.701,222.717 159.834 C 223.122 160.025,223.129 160.203,222.752 160.658 C 222.362 161.127,222.200 161.139,221.901 160.719 C 221.645 160.360,221.592 160.481,221.730 161.110 C 221.880 161.790,221.766 161.991,221.280 161.910 C 220.896 161.845,220.563 162.129,220.468 162.600 C 220.255 163.660,217.710 166.115,217.170 165.782 C 216.937 165.637,216.643 165.913,216.518 166.394 C 216.345 167.053,216.206 167.136,215.951 166.734 C 215.691 166.325,215.611 166.364,215.606 166.900 C 215.603 167.295,215.295 167.603,214.900 167.606 C 214.364 167.611,214.325 167.691,214.734 167.951 C 215.136 168.206,215.053 168.345,214.394 168.518 C 213.913 168.643,213.637 168.937,213.782 169.170 C 214.115 169.710,211.660 172.255,210.600 172.468 C 210.129 172.563,209.845 172.896,209.910 173.280 C 209.990 173.759,209.780 173.886,209.110 173.761 C 208.609 173.667,208.433 173.701,208.717 173.834 C 209.122 174.025,209.129 174.203,208.752 174.658 C 208.362 175.127,208.200 175.139,207.901 174.719 C 207.645 174.360,207.592 174.481,207.730 175.110 C 207.880 175.790,207.766 175.991,207.280 175.910 C 206.896 175.845,206.563 176.129,206.468 176.600 C 206.255 177.660,203.710 180.115,203.170 179.782 C 202.937 179.637,202.643 179.913,202.518 180.394 C 202.345 181.053,202.206 181.136,201.951 180.734 C 201.691 180.325,201.611 180.364,201.606 180.900 C 201.603 181.295,201.295 181.603,200.900 181.606 C 200.364 181.611,200.325 181.691,200.734 181.950 C 201.439 182.398,200.291 182.886,199.366 182.532 C 198.856 182.336,198.837 182.223,199.266 181.950 C 199.675 181.691,199.636 181.611,199.100 181.606 C 198.705 181.603,198.397 181.295,198.394 180.900 C 198.389 180.364,198.309 180.325,198.049 180.734 C 197.792 181.140,197.659 181.068,197.493 180.434 C 197.367 179.952,196.949 179.600,196.504 179.600 C 195.618 179.600,193.600 177.509,193.600 176.591 C 193.600 176.252,193.330 175.871,193.000 175.745 C 192.670 175.618,192.397 175.219,192.394 174.857 C 192.390 174.429,192.285 174.359,192.094 174.656 C 191.881 174.986,191.658 174.958,191.284 174.556 C 190.863 174.102,190.863 173.995,191.284 173.975 C 191.568 173.961,191.395 173.787,190.900 173.588 C 190.405 173.389,190.000 173.040,190.000 172.813 C 190.000 172.586,189.728 172.400,189.397 172.400 C 188.511 172.400,186.507 170.481,186.227 169.365 C 186.089 168.814,185.688 168.397,185.292 168.394 C 184.699 168.389,184.686 168.332,185.200 168.000 C 185.713 167.669,185.698 167.611,185.100 167.606 C 184.705 167.603,184.397 167.295,184.394 166.900 C 184.389 166.364,184.309 166.325,184.049 166.734 C 183.792 167.140,183.659 167.068,183.493 166.434 C 183.367 165.952,182.949 165.600,182.504 165.600 C 181.618 165.600,179.600 163.509,179.600 162.591 C 179.600 162.252,179.330 161.871,179.000 161.745 C 178.670 161.618,178.397 161.219,178.394 160.857 C 178.390 160.429,178.285 160.359,178.094 160.656 C 177.881 160.986,177.658 160.958,177.284 160.556 C 176.863 160.102,176.863 159.995,177.284 159.975 C 177.568 159.961,177.395 159.787,176.900 159.588 C 176.405 159.389,176.000 159.040,176.000 158.813 C 176.000 158.586,175.728 158.400,175.397 158.400 C 174.511 158.400,172.507 156.481,172.227 155.365 C 172.089 154.814,171.688 154.397,171.292 154.394 C 170.699 154.389,170.686 154.332,171.200 154.000 C 171.713 153.669,171.698 153.611,171.100 153.606 C 170.705 153.603,170.397 153.295,170.394 152.900 C 170.389 152.364,170.309 152.325,170.049 152.734 C 169.792 153.140,169.659 153.068,169.493 152.434 C 169.367 151.952,168.949 151.600,168.504 151.600 C 167.618 151.600,165.600 149.509,165.600 148.591 C 165.600 148.252,165.330 147.871,165.000 147.745 C 164.670 147.618,164.397 147.219,164.394 146.857 C 164.390 146.429,164.285 146.359,164.094 146.656 C 163.881 146.986,163.658 146.958,163.284 146.556 C 162.863 146.102,162.863 145.995,163.284 145.975 C 163.568 145.961,163.395 145.787,162.900 145.588 C 162.405 145.389,162.000 145.040,162.000 144.813 C 162.000 144.586,161.728 144.400,161.397 144.400 C 160.511 144.400,158.507 142.481,158.227 141.365 C 158.089 140.814,157.688 140.397,157.292 140.394 C 156.699 140.389,156.686 140.332,157.200 140.000 C 157.713 139.669,157.698 139.611,157.100 139.606 C 156.705 139.603,156.397 139.295,156.394 138.900 C 156.389 138.364,156.309 138.325,156.049 138.734 C 155.792 139.140,155.659 139.068,155.493 138.434 C 155.367 137.952,154.949 137.600,154.504 137.600 C 153.618 137.600,151.600 135.509,151.600 134.591 C 151.600 134.252,151.330 133.871,151.000 133.745 C 150.670 133.618,150.397 133.219,150.394 132.857 C 150.390 132.429,150.285 132.359,150.094 132.656 C 149.881 132.986,149.658 132.958,149.284 132.556 C 148.863 132.102,148.863 131.995,149.284 131.975 C 149.568 131.961,149.395 131.787,148.900 131.588 C 148.405 131.389,148.000 131.040,148.000 130.813 C 148.000 130.586,147.728 130.400,147.397 130.400 C 146.511 130.400,144.507 128.481,144.227 127.365 C 144.089 126.814,143.688 126.397,143.292 126.394 C 142.699 126.389,142.686 126.332,143.200 126.000 C 143.713 125.669,143.698 125.611,143.100 125.606 C 142.705 125.603,142.397 125.295,142.394 124.900 C 142.389 124.364,142.309 124.325,142.049 124.734 C 141.792 125.140,141.659 125.068,141.493 124.434 C 141.367 123.952,140.949 123.600,140.504 123.600 C 139.618 123.600,137.600 121.509,137.600 120.591 C 137.600 120.252,137.330 119.871,137.000 119.745 C 136.670 119.618,136.397 119.219,136.394 118.857 C 136.390 118.429,136.285 118.359,136.094 118.656 C 135.881 118.986,135.658 118.958,135.284 118.556 C 134.863 118.102,134.863 117.995,135.284 117.975 C 135.568 117.961,135.395 117.787,134.900 117.588 C 134.405 117.389,134.000 117.040,134.000 116.813 C 134.000 116.586,133.728 116.400,133.397 116.400 C 132.511 116.400,130.507 114.481,130.227 113.365 C 130.089 112.814,129.688 112.397,129.292 112.394 C 128.699 112.389,128.686 112.332,129.200 112.000 C 129.713 111.669,129.698 111.611,129.100 111.606 C 128.705 111.603,128.397 111.295,128.394 110.900 C 128.389 110.364,128.309 110.325,128.049 110.734 C 127.792 111.140,127.659 111.068,127.493 110.434 C 127.367 109.952,126.949 109.600,126.504 109.600 C 125.618 109.600,123.600 107.509,123.600 106.591 C 123.600 106.252,123.330 105.871,123.000 105.745 C 122.670 105.618,122.397 105.219,122.394 104.857 C 122.390 104.429,122.285 104.359,122.094 104.656 C 121.881 104.986,121.658 104.958,121.284 104.556 C 120.863 104.102,120.863 103.995,121.284 103.975 C 121.568 103.961,121.395 103.787,120.900 103.588 C 120.405 103.389,120.000 103.040,120.000 102.813 C 120.000 102.586,119.728 102.400,119.397 102.400 C 118.511 102.400,116.507 100.481,116.227 99.365 C 116.089 98.814,115.688 98.397,115.292 98.394 C 114.699 98.389,114.686 98.332,115.200 98.000 C 115.713 97.669,115.698 97.611,115.100 97.606 C 114.705 97.603,114.397 97.295,114.394 96.900 C 114.389 96.364,114.309 96.325,114.049 96.734 C 113.792 97.140,113.659 97.068,113.493 96.434 C 113.367 95.952,112.949 95.600,112.504 95.600 C 111.618 95.600,109.600 93.509,109.600 92.591 C 109.600 92.252,109.330 91.871,109.000 91.745 C 108.670 91.618,108.397 91.219,108.394 90.857 C 108.390 90.429,108.285 90.359,108.094 90.656 C 107.881 90.986,107.658 90.958,107.284 90.556 C 106.863 90.102,106.863 89.995,107.284 89.975 C 107.568 89.961,107.395 89.787,106.900 89.588 C 106.405 89.389,106.000 89.040,106.000 88.813 C 106.000 88.586,105.728 88.400,105.397 88.400 C 104.511 88.400,102.507 86.481,102.227 85.365 C 102.089 84.814,101.688 84.397,101.292 84.394 C 100.699 84.389,100.686 84.332,101.200 84.000 C 101.713 83.669,101.698 83.611,101.100 83.606 C 100.705 83.603,100.397 83.295,100.394 82.900 C 100.389 82.364,100.309 82.325,100.049 82.734 C 99.792 83.140,99.659 83.068,99.493 82.434 C 99.367 81.952,98.949 81.600,98.504 81.600 C 97.618 81.600,95.600 79.509,95.600 78.591 C 95.600 78.252,95.330 77.871,95.000 77.745 C 94.670 77.618,94.397 77.219,94.394 76.857 C 94.390 76.429,94.285 76.359,94.094 76.656 C 93.881 76.986,93.658 76.958,93.284 76.556 C 92.863 76.102,92.863 75.995,93.284 75.975 C 93.568 75.961,93.395 75.787,92.900 75.588 C 92.405 75.389,92.000 75.040,92.000 74.813 C 92.000 74.586,91.728 74.400,91.397 74.400 C 90.511 74.400,88.507 72.481,88.227 71.365 C 88.089 70.814,87.688 70.397,87.292 70.394 C 86.699 70.389,86.686 70.332,87.200 70.000 C 87.713 69.669,87.698 69.611,87.100 69.606 C 86.705 69.603,86.397 69.295,86.394 68.900 C 86.389 68.364,86.309 68.325,86.049 68.734 C 85.792 69.140,85.659 69.068,85.493 68.434 C 85.367 67.952,84.949 67.600,84.504 67.600 C 83.618 67.600,81.600 65.509,81.600 64.591 C 81.600 64.252,81.330 63.871,81.000 63.745 C 80.670 63.618,80.397 63.219,80.394 62.857 C 80.390 62.429,80.285 62.359,80.094 62.656 C 79.881 62.986,79.658 62.958,79.284 62.556 C 78.863 62.102,78.863 61.995,79.284 61.975 C 79.568 61.961,79.395 61.787,78.900 61.588 C 78.405 61.389,78.000 61.040,78.000 60.813 C 78.000 60.586,77.728 60.400,77.397 60.400 C 76.511 60.400,74.507 58.481,74.227 57.365 C 74.089 56.814,73.688 56.397,73.292 56.394 C 72.699 56.389,72.686 56.332,73.200 56.000 C 73.713 55.669,73.698 55.611,73.100 55.606 C 72.705 55.603,72.397 55.295,72.394 54.900 C 72.389 54.364,72.309 54.325,72.049 54.734 C 71.792 55.140,71.659 55.068,71.493 54.434 C 71.367 53.952,70.949 53.600,70.504 53.600 C 69.618 53.600,67.600 51.509,67.600 50.591 C 67.600 50.252,67.330 49.871,67.000 49.745 C 66.670 49.618,66.397 49.219,66.394 48.857 C 66.390 48.429,66.285 48.359,66.094 48.656 C 65.881 48.986,65.658 48.958,65.284 48.556 C 64.863 48.102,64.863 47.995,65.284 47.975 C 65.568 47.961,65.395 47.787,64.900 47.588 C 64.405 47.389,64.000 47.040,64.000 46.813 C 64.000 46.586,63.728 46.400,63.397 46.400 C 62.511 46.400,60.507 44.481,60.227 43.365 C 60.089 42.814,59.688 42.397,59.292 42.394 C 58.699 42.389,58.686 42.332,59.200 42.000 C 59.713 41.669,59.698 41.611,59.100 41.606 C 58.705 41.603,58.397 41.295,58.394 40.900 C 58.389 40.364,58.309 40.325,58.049 40.734 C 57.792 41.140,57.659 41.068,57.493 40.434 C 57.367 39.952,56.949 39.600,56.504 39.600 C 55.618 39.600,53.600 37.509,53.600 36.591 C 53.600 36.252,53.330 35.871,53.000 35.745 C 52.670 35.618,52.397 35.219,52.394 34.857 C 52.390 34.429,52.285 34.359,52.094 34.656 C 51.881 34.986,51.658 34.958,51.284 34.556 C 50.863 34.102,50.863 33.995,51.284 33.975 C 51.568 33.961,51.395 33.787,50.900 33.588 C 50.405 33.389,50.000 33.040,50.000 32.813 C 50.000 32.586,49.359 32.400,48.576 32.400 C 47.729 32.400,47.253 32.238,47.400 32.000 C 47.536 31.780,47.266 31.600,46.800 31.600 C 46.334 31.600,46.052 31.439,46.174 31.242 C 46.531 30.665,45.662 30.531,40.900 30.432 C 37.031 30.352,36.400 30.427,36.400 30.970 " stroke="none" fill="#cccccc" fill-rule="evenodd"></path><path id="path1" d="M199.369 182.487 C 199.734 182.691,200.266 182.691,200.631 182.487 C 201.101 182.224,200.940 182.133,200.000 182.133 C 199.060 182.133,198.899 182.224,199.369 182.487 M32.216 368.373 C 32.071 368.608,32.154 368.800,32.400 368.800 C 32.646 368.800,32.755 368.950,32.641 369.133 C 32.528 369.317,32.694 369.467,33.011 369.467 C 33.472 369.467,33.491 369.340,33.107 368.833 C 32.843 368.485,32.593 368.143,32.553 368.073 C 32.513 368.004,32.361 368.139,32.216 368.373 " stroke="none" fill="#d0cccc" fill-rule="evenodd"></path></g></svg>